<?xml version="1.0" encoding="utf-8" standalone="no"?>
<!DOCTYPE svg PUBLIC "-//W3C//DTD SVG 1.1//EN"
  "http://www.w3.org/Graphics/SVG/1.1/DTD/svg11.dtd">
<svg xmlns:xlink="http://www.w3.org/1999/xlink" width="708.560937pt" height="421.326873pt" viewBox="0 0 708.560937 421.326873" xmlns="http://www.w3.org/2000/svg" version="1.1">
 <metadata>
  <rdf:RDF xmlns:dc="http://purl.org/dc/elements/1.1/" xmlns:cc="http://creativecommons.org/ns#" xmlns:rdf="http://www.w3.org/1999/02/22-rdf-syntax-ns#">
   <cc:Work>
    <dc:type rdf:resource="http://purl.org/dc/dcmitype/StillImage"/>
    <dc:date>2025-12-25T20:55:29.742426</dc:date>
    <dc:format>image/svg+xml</dc:format>
    <dc:creator>
     <cc:Agent>
      <dc:title>Matplotlib v3.7.2, https://matplotlib.org/</dc:title>
     </cc:Agent>
    </dc:creator>
   </cc:Work>
  </rdf:RDF>
 </metadata>
 <defs>
  <style type="text/css">*{stroke-linejoin: round; stroke-linecap: butt}</style>
 </defs>
 <g id="figure_1">
  <g id="patch_1">
   <path d="M 0 421.326873 
L 708.560937 421.326873 
L 708.560937 0 
L 0 0 
z
" style="fill: #ffffff"/>
  </g>
  <g id="axes_1">
   <g id="patch_2">
    <path d="M 45.703437 355.740433 
L 694.160938 355.740433 
L 694.160938 17.828125 
L 45.703437 17.828125 
z
" style="fill: #ffffff"/>
   </g>
   <g id="matplotlib.axis_1">
    <g id="xtick_1">
     <g id="line2d_1">
      <path d="M 369.932188 355.740433 
L 369.932188 17.828125 
" clip-path="url(#p50f632e013)" style="fill: none; stroke-dasharray: 2.96,1.28; stroke-dashoffset: 0; stroke: #b0b0b0; stroke-opacity: 0.3; stroke-width: 0.8"/>
     </g>
     <g id="line2d_2">
      <defs>
       <path id="mbd5437177d" d="M 0 0 
L 0 3.5 
" style="stroke: #000000; stroke-width: 0.8"/>
      </defs>
      <g>
       <use xlink:href="#mbd5437177d" x="369.932188" y="355.740433" style="stroke: #000000; stroke-width: 0.8"/>
      </g>
     </g>
     <g id="text_1">
      <!-- 2025-12-24 -->
      <g transform="translate(330.593849 405.752413) rotate(-45) scale(0.1 -0.1)">
       <defs>
        <path id="WenQuanYiZenHei-32" d="M 3488 0 
L 369 0 
L 369 456 
L 2150 1850 
Q 2931 2463 2931 3144 
Q 2931 3619 2488 3863 
Q 2231 4013 1931 4013 
Q 1425 4013 1113 3619 
Q 894 3356 881 3013 
L 369 3169 
Q 531 3981 1213 4300 
Q 1544 4456 1950 4456 
Q 2631 4456 3088 4044 
L 3225 3888 
L 3350 3706 
Q 3481 3444 3481 3144 
Q 3481 2313 2519 1569 
L 1069 456 
L 3488 456 
L 3488 0 
z
" transform="scale(0.015625)"/>
        <path id="WenQuanYiZenHei-30" d="M 3581 2175 
Q 3581 1288 3169 638 
Q 2713 -63 1938 -63 
Q 1025 -63 563 831 
Q 256 1425 256 2188 
Q 256 3188 700 3819 
Q 1138 4456 1888 4456 
Q 2863 4456 3306 3500 
Q 3581 2925 3581 2175 
z
M 3019 2100 
Q 3019 3356 2500 3806 
L 2350 3919 
Q 2144 4031 1888 4031 
Q 1100 4031 888 2956 
Q 819 2625 819 2225 
Q 819 1013 1338 569 
Q 1588 356 1938 356 
Q 2675 356 2925 1294 
Q 3019 1663 3019 2100 
z
" transform="scale(0.015625)"/>
        <path id="WenQuanYiZenHei-35" d="M 3531 1488 
Q 3531 688 2913 250 
Q 2456 -63 1844 -63 
Q 1175 -63 706 350 
Q 413 613 306 975 
L 781 1131 
Q 1000 538 1569 406 
Q 1706 369 1856 369 
Q 2550 369 2850 869 
Q 3000 1131 3000 1494 
Q 3000 2056 2581 2356 
Q 2319 2538 1969 2538 
Q 1400 2538 1031 2075 
Q 981 2013 938 1938 
L 500 2031 
L 644 4388 
L 3244 4388 
L 3200 3919 
L 1044 3919 
L 950 2500 
Q 1431 2975 2006 2975 
Q 2713 2975 3163 2475 
Q 3531 2063 3531 1488 
z
" transform="scale(0.015625)"/>
        <path id="WenQuanYiZenHei-2d" d="M 1363 1444 
L 0 1444 
L 0 1844 
L 1363 1844 
L 1363 1444 
z
" transform="scale(0.015625)"/>
        <path id="WenQuanYiZenHei-31" d="M 3556 0 
L 488 0 
L 488 406 
L 1800 406 
L 1800 3725 
Q 1231 3125 588 2788 
L 588 3338 
Q 1456 3781 1931 4388 
L 2331 4388 
L 2331 406 
L 3556 406 
L 3556 0 
z
" transform="scale(0.015625)"/>
        <path id="WenQuanYiZenHei-34" d="M 3631 1025 
L 2913 1025 
L 2913 0 
L 2381 0 
L 2381 1025 
L 219 1025 
L 219 1388 
L 2225 4388 
L 2913 4388 
L 2913 1444 
L 3631 1444 
L 3631 1025 
z
M 2381 1444 
L 2381 3963 
L 788 1444 
L 2381 1444 
z
" transform="scale(0.015625)"/>
       </defs>
       <use xlink:href="#WenQuanYiZenHei-32"/>
       <use xlink:href="#WenQuanYiZenHei-30" x="59.960938"/>
       <use xlink:href="#WenQuanYiZenHei-32" x="119.921875"/>
       <use xlink:href="#WenQuanYiZenHei-35" x="179.882812"/>
       <use xlink:href="#WenQuanYiZenHei-2d" x="239.84375"/>
       <use xlink:href="#WenQuanYiZenHei-31" x="269.824219"/>
       <use xlink:href="#WenQuanYiZenHei-32" x="329.785156"/>
       <use xlink:href="#WenQuanYiZenHei-2d" x="389.746094"/>
       <use xlink:href="#WenQuanYiZenHei-32" x="419.726562"/>
       <use xlink:href="#WenQuanYiZenHei-34" x="479.6875"/>
      </g>
     </g>
    </g>
   </g>
   <g id="matplotlib.axis_2">
    <g id="ytick_1">
     <g id="line2d_3">
      <path d="M 45.703437 355.740433 
L 694.160938 355.740433 
" clip-path="url(#p50f632e013)" style="fill: none; stroke-dasharray: 2.96,1.28; stroke-dashoffset: 0; stroke: #b0b0b0; stroke-opacity: 0.3; stroke-width: 0.8"/>
     </g>
     <g id="line2d_4">
      <defs>
       <path id="m66b7f4201f" d="M 0 0 
L -3.5 0 
" style="stroke: #000000; stroke-width: 0.8"/>
      </defs>
      <g>
       <use xlink:href="#m66b7f4201f" x="45.703437" y="355.740433" style="stroke: #000000; stroke-width: 0.8"/>
      </g>
     </g>
     <g id="text_2">
      <!-- -4 -->
      <g transform="translate(29.708125 359.168558) scale(0.1 -0.1)">
       <use xlink:href="#WenQuanYiZenHei-2d"/>
       <use xlink:href="#WenQuanYiZenHei-34" x="29.980469"/>
      </g>
     </g>
    </g>
    <g id="ytick_2">
     <g id="line2d_5">
      <path d="M 45.703437 299.421715 
L 694.160938 299.421715 
" clip-path="url(#p50f632e013)" style="fill: none; stroke-dasharray: 2.96,1.28; stroke-dashoffset: 0; stroke: #b0b0b0; stroke-opacity: 0.3; stroke-width: 0.8"/>
     </g>
     <g id="line2d_6">
      <g>
       <use xlink:href="#m66b7f4201f" x="45.703437" y="299.421715" style="stroke: #000000; stroke-width: 0.8"/>
      </g>
     </g>
     <g id="text_3">
      <!-- -2 -->
      <g transform="translate(29.708125 302.84984) scale(0.1 -0.1)">
       <use xlink:href="#WenQuanYiZenHei-2d"/>
       <use xlink:href="#WenQuanYiZenHei-32" x="29.980469"/>
      </g>
     </g>
    </g>
    <g id="ytick_3">
     <g id="line2d_7">
      <path d="M 45.703437 243.102997 
L 694.160938 243.102997 
" clip-path="url(#p50f632e013)" style="fill: none; stroke-dasharray: 2.96,1.28; stroke-dashoffset: 0; stroke: #b0b0b0; stroke-opacity: 0.3; stroke-width: 0.8"/>
     </g>
     <g id="line2d_8">
      <g>
       <use xlink:href="#m66b7f4201f" x="45.703437" y="243.102997" style="stroke: #000000; stroke-width: 0.8"/>
      </g>
     </g>
     <g id="text_4">
      <!-- 0 -->
      <g transform="translate(32.706562 246.531122) scale(0.1 -0.1)">
       <use xlink:href="#WenQuanYiZenHei-30"/>
      </g>
     </g>
    </g>
    <g id="ytick_4">
     <g id="line2d_9">
      <path d="M 45.703437 186.784279 
L 694.160938 186.784279 
" clip-path="url(#p50f632e013)" style="fill: none; stroke-dasharray: 2.96,1.28; stroke-dashoffset: 0; stroke: #b0b0b0; stroke-opacity: 0.3; stroke-width: 0.8"/>
     </g>
     <g id="line2d_10">
      <g>
       <use xlink:href="#m66b7f4201f" x="45.703437" y="186.784279" style="stroke: #000000; stroke-width: 0.8"/>
      </g>
     </g>
     <g id="text_5">
      <!-- 2 -->
      <g transform="translate(32.706562 190.212404) scale(0.1 -0.1)">
       <use xlink:href="#WenQuanYiZenHei-32"/>
      </g>
     </g>
    </g>
    <g id="ytick_5">
     <g id="line2d_11">
      <path d="M 45.703437 130.465561 
L 694.160938 130.465561 
" clip-path="url(#p50f632e013)" style="fill: none; stroke-dasharray: 2.96,1.28; stroke-dashoffset: 0; stroke: #b0b0b0; stroke-opacity: 0.3; stroke-width: 0.8"/>
     </g>
     <g id="line2d_12">
      <g>
       <use xlink:href="#m66b7f4201f" x="45.703437" y="130.465561" style="stroke: #000000; stroke-width: 0.8"/>
      </g>
     </g>
     <g id="text_6">
      <!-- 4 -->
      <g transform="translate(32.706562 133.893686) scale(0.1 -0.1)">
       <use xlink:href="#WenQuanYiZenHei-34"/>
      </g>
     </g>
    </g>
    <g id="ytick_6">
     <g id="line2d_13">
      <path d="M 45.703437 74.146843 
L 694.160938 74.146843 
" clip-path="url(#p50f632e013)" style="fill: none; stroke-dasharray: 2.96,1.28; stroke-dashoffset: 0; stroke: #b0b0b0; stroke-opacity: 0.3; stroke-width: 0.8"/>
     </g>
     <g id="line2d_14">
      <g>
       <use xlink:href="#m66b7f4201f" x="45.703437" y="74.146843" style="stroke: #000000; stroke-width: 0.8"/>
      </g>
     </g>
     <g id="text_7">
      <!-- 6 -->
      <g transform="translate(32.706562 77.574968) scale(0.1 -0.1)">
       <defs>
        <path id="WenQuanYiZenHei-36" d="M 3550 1431 
Q 3550 725 3006 288 
Q 2581 -63 1994 -63 
Q 1013 -63 563 825 
Q 288 1363 288 2081 
Q 288 3294 856 3938 
Q 1319 4456 2075 4456 
Q 2969 4456 3363 3756 
Q 3431 3631 3481 3481 
L 2988 3350 
Q 2750 3994 2075 4006 
Q 1056 4006 844 2669 
Q 794 2356 794 1981 
L 806 1981 
Q 1006 2506 1544 2744 
Q 1819 2869 2119 2869 
Q 2788 2869 3213 2375 
Q 3550 1975 3550 1431 
z
M 3038 1406 
Q 3038 1906 2656 2213 
Q 2381 2431 2038 2431 
Q 1525 2431 1181 2044 
Q 919 1744 919 1356 
Q 919 881 1344 581 
Q 1631 375 1981 375 
Q 2519 375 2838 781 
Q 3038 1050 3038 1406 
z
" transform="scale(0.015625)"/>
       </defs>
       <use xlink:href="#WenQuanYiZenHei-36"/>
      </g>
     </g>
    </g>
    <g id="ytick_7">
     <g id="line2d_15">
      <path d="M 45.703437 17.828125 
L 694.160938 17.828125 
" clip-path="url(#p50f632e013)" style="fill: none; stroke-dasharray: 2.96,1.28; stroke-dashoffset: 0; stroke: #b0b0b0; stroke-opacity: 0.3; stroke-width: 0.8"/>
     </g>
     <g id="line2d_16">
      <g>
       <use xlink:href="#m66b7f4201f" x="45.703437" y="17.828125" style="stroke: #000000; stroke-width: 0.8"/>
      </g>
     </g>
     <g id="text_8">
      <!-- 8 -->
      <g transform="translate(32.706562 21.25625) scale(0.1 -0.1)">
       <defs>
        <path id="WenQuanYiZenHei-38" d="M 3619 1175 
Q 3619 431 2850 100 
Q 2444 -63 1944 -63 
Q 1231 -63 725 269 
Q 225 594 225 1125 
Q 225 1881 1269 2281 
Q 719 2481 519 2938 
Q 444 3119 444 3319 
Q 444 4000 1144 4294 
Q 1519 4456 1963 4456 
Q 2669 4456 3094 4094 
Q 3425 3813 3425 3369 
Q 3425 2638 2575 2356 
Q 3231 2056 3450 1725 
Q 3619 1488 3619 1175 
z
M 2944 3344 
Q 2944 3906 2288 4019 
Q 2138 4044 1969 4044 
Q 1438 4044 1163 3775 
Q 1000 3613 1000 3375 
Q 1000 2925 1594 2663 
Q 1756 2588 1931 2550 
Q 2581 2725 2788 2956 
Q 2944 3125 2944 3344 
z
M 3075 1094 
Q 3075 1738 1875 2050 
Q 1094 1881 850 1463 
Q 763 1313 763 1131 
Q 763 569 1456 406 
Q 1681 344 1944 344 
Q 2519 344 2850 619 
Q 3075 813 3075 1094 
z
" transform="scale(0.015625)"/>
       </defs>
       <use xlink:href="#WenQuanYiZenHei-38"/>
      </g>
     </g>
    </g>
    <g id="text_9">
     <!-- 腹泻 -->
     <g transform="translate(23.715 198.784279) rotate(-90) scale(0.12 -0.12)">
      <defs>
       <path id="WenQuanYiZenHei-8179" d="M 4619 244 
Q 5213 -138 6088 -125 
Q 5938 -325 5944 -569 
Q 5056 -581 4313 -13 
Q 3575 -563 2656 -650 
Q 2569 -413 2413 -219 
Q 3275 -225 3988 269 
Q 3606 650 3331 1175 
Q 3019 806 2581 419 
Q 2469 600 2263 688 
Q 2606 969 2862 1291 
Q 3119 1613 3431 2131 
L 3031 2131 
Q 3100 2956 3038 3763 
Q 2881 3575 2700 3381 
Q 2569 3556 2356 3619 
Q 2663 3919 2881 4266 
Q 3100 4613 3331 5150 
Q 3538 5044 3756 4988 
Q 3675 4756 3581 4575 
L 5331 4575 
Q 5613 4575 5900 4588 
Q 5881 4438 5900 4281 
Q 5613 4294 5331 4294 
L 3419 4294 
Q 3288 4075 3106 3850 
L 5538 3850 
Q 5456 2988 5525 2131 
L 3450 2131 
Q 3631 2006 3831 1919 
Q 3744 1744 3656 1613 
L 5469 1613 
Q 5219 819 4619 244 
z
M 3669 1338 
Q 3944 825 4288 506 
Q 4675 863 4900 1338 
L 3669 1338 
z
M 3444 3569 
L 3444 3113 
L 5119 3113 
L 5119 3569 
L 3444 3569 
z
M 3444 2856 
L 3444 2413 
L 5113 2413 
L 5113 2856 
L 3444 2856 
z
M 1756 3406 
L 1756 4450 
L 1075 4450 
L 1075 3406 
L 1756 3406 
z
M 1756 1913 
L 1756 3144 
L 1075 3144 
L 1075 1913 
L 1756 1913 
z
M 1394 -881 
Q 1431 -550 1281 -338 
Q 1375 -369 1488 -388 
Q 1681 -394 1718 -341 
Q 1756 -288 1756 100 
L 1756 1650 
L 1075 1650 
L 1075 1056 
Q 1075 -144 475 -713 
Q 344 -519 100 -456 
Q 694 -56 675 1056 
L 675 4744 
L 2156 4744 
L 2156 -150 
Q 2156 -469 2025 -638 
Q 1838 -863 1394 -881 
z
" transform="scale(0.015625)"/>
       <path id="WenQuanYiZenHei-6cfb" d="M 5019 1044 
Q 5000 863 5019 681 
Q 4688 694 4350 694 
L 2475 694 
Q 2138 694 1806 681 
Q 1825 863 1806 1044 
Q 2138 1025 2475 1025 
L 4350 1025 
Q 4688 1025 5019 1044 
z
M 5294 -94 
L 5294 1781 
L 2813 1781 
L 3050 3344 
Q 3113 3788 3163 4231 
Q 3394 4169 3638 4156 
Q 3556 3738 3488 3319 
L 5325 3319 
Q 5663 3319 6000 3331 
Q 5981 3150 6000 2969 
Q 5663 2988 5325 2988 
L 3438 2988 
L 3306 2113 
L 5738 2113 
L 5738 -206 
Q 5738 -438 5550 -600 
Q 5288 -831 4594 -825 
Q 4669 -519 4450 -288 
Q 4650 -313 4928 -316 
Q 5206 -319 5250 -281 
Q 5294 -244 5294 -94 
z
M 2725 3713 
L 2281 3713 
L 2281 4888 
L 6044 4888 
L 6044 3713 
L 5606 3713 
L 5606 4556 
L 2725 4556 
L 2725 3713 
z
M 775 -738 
Q 563 -588 244 -575 
Q 469 -69 709 581 
Q 950 1231 1406 2838 
L 1619 2706 
L 1025 338 
L 775 -738 
z
M 1181 2856 
L 856 2550 
L 88 3400 
L 413 3713 
L 1181 2856 
z
M 1275 3913 
Q 919 4388 500 4800 
L 806 5125 
Q 1250 4688 1625 4188 
L 1275 3913 
z
" transform="scale(0.015625)"/>
      </defs>
      <use xlink:href="#WenQuanYiZenHei-8179"/>
      <use xlink:href="#WenQuanYiZenHei-6cfb" x="100"/>
     </g>
    </g>
   </g>
   <g id="LineCollection_1">
    <path d="M 369.932188 228.905803 
L 369.932188 154.049208 
" clip-path="url(#p50f632e013)" style="fill: none; stroke: #1f77b4; stroke-opacity: 0.8; stroke-width: 2"/>
   </g>
   <g id="line2d_17">
    <defs>
     <path id="m5bf1c27d52" d="M 5 0 
L -5 -0 
" style="stroke: #1f77b4; stroke-opacity: 0.8; stroke-width: 1.5"/>
    </defs>
    <g clip-path="url(#p50f632e013)">
     <use xlink:href="#m5bf1c27d52" x="369.932188" y="228.905803" style="fill: #1f77b4; fill-opacity: 0.8; stroke: #1f77b4; stroke-opacity: 0.8; stroke-width: 1.5"/>
    </g>
   </g>
   <g id="line2d_18">
    <g clip-path="url(#p50f632e013)">
     <use xlink:href="#m5bf1c27d52" x="369.932188" y="154.049208" style="fill: #1f77b4; fill-opacity: 0.8; stroke: #1f77b4; stroke-opacity: 0.8; stroke-width: 1.5"/>
    </g>
   </g>
   <g id="LineCollection_2">
    <path d="M 369.932188 130.465561 
L 369.932188 130.465561 
" clip-path="url(#p50f632e013)" style="fill: none; stroke: #ff7f0e; stroke-opacity: 0.8; stroke-width: 2"/>
   </g>
   <g id="line2d_19">
    <defs>
     <path id="m8a79816d1c" d="M 5 0 
L -5 -0 
" style="stroke: #ff7f0e; stroke-opacity: 0.8; stroke-width: 1.5"/>
    </defs>
    <g clip-path="url(#p50f632e013)">
     <use xlink:href="#m8a79816d1c" x="369.932188" y="130.465561" style="fill: #ff7f0e; fill-opacity: 0.8; stroke: #ff7f0e; stroke-opacity: 0.8; stroke-width: 1.5"/>
    </g>
   </g>
   <g id="line2d_20">
    <g clip-path="url(#p50f632e013)">
     <use xlink:href="#m8a79816d1c" x="369.932188" y="130.465561" style="fill: #ff7f0e; fill-opacity: 0.8; stroke: #ff7f0e; stroke-opacity: 0.8; stroke-width: 1.5"/>
    </g>
   </g>
   <g id="LineCollection_3">
    <path d="M 369.932188 130.465561 
L 369.932188 130.465561 
" clip-path="url(#p50f632e013)" style="fill: none; stroke: #2ca02c; stroke-opacity: 0.8; stroke-width: 2"/>
   </g>
   <g id="line2d_21">
    <defs>
     <path id="m9b8dcffb65" d="M 5 0 
L -5 -0 
" style="stroke: #2ca02c; stroke-opacity: 0.8; stroke-width: 1.5"/>
    </defs>
    <g clip-path="url(#p50f632e013)">
     <use xlink:href="#m9b8dcffb65" x="369.932188" y="130.465561" style="fill: #2ca02c; fill-opacity: 0.8; stroke: #2ca02c; stroke-opacity: 0.8; stroke-width: 1.5"/>
    </g>
   </g>
   <g id="line2d_22">
    <g clip-path="url(#p50f632e013)">
     <use xlink:href="#m9b8dcffb65" x="369.932188" y="130.465561" style="fill: #2ca02c; fill-opacity: 0.8; stroke: #2ca02c; stroke-opacity: 0.8; stroke-width: 1.5"/>
    </g>
   </g>
   <g id="LineCollection_4">
    <path d="M 369.932188 130.465561 
L 369.932188 130.465561 
" clip-path="url(#p50f632e013)" style="fill: none; stroke: #d62728; stroke-opacity: 0.8; stroke-width: 2"/>
   </g>
   <g id="line2d_23">
    <defs>
     <path id="m87bad32ea7" d="M 5 0 
L -5 -0 
" style="stroke: #d62728; stroke-opacity: 0.8; stroke-width: 1.5"/>
    </defs>
    <g clip-path="url(#p50f632e013)">
     <use xlink:href="#m87bad32ea7" x="369.932188" y="130.465561" style="fill: #d62728; fill-opacity: 0.8; stroke: #d62728; stroke-opacity: 0.8; stroke-width: 1.5"/>
    </g>
   </g>
   <g id="line2d_24">
    <g clip-path="url(#p50f632e013)">
     <use xlink:href="#m87bad32ea7" x="369.932188" y="130.465561" style="fill: #d62728; fill-opacity: 0.8; stroke: #d62728; stroke-opacity: 0.8; stroke-width: 1.5"/>
    </g>
   </g>
   <g id="line2d_25">
    <path d="M 369.932188 191.477506 
" clip-path="url(#p50f632e013)" style="fill: none; stroke: #1f77b4; stroke-opacity: 0.8; stroke-width: 2; stroke-linecap: square"/>
    <defs>
     <path id="mb83b78a9ce" d="M 0 3 
C 0.795609 3 1.55874 2.683901 2.12132 2.12132 
C 2.683901 1.55874 3 0.795609 3 0 
C 3 -0.795609 2.683901 -1.55874 2.12132 -2.12132 
C 1.55874 -2.683901 0.795609 -3 0 -3 
C -0.795609 -3 -1.55874 -2.683901 -2.12132 -2.12132 
C -2.683901 -1.55874 -3 -0.795609 -3 0 
C -3 0.795609 -2.683901 1.55874 -2.12132 2.12132 
C -1.55874 2.683901 -0.795609 3 0 3 
z
" style="stroke: #1f77b4; stroke-opacity: 0.8"/>
    </defs>
    <g clip-path="url(#p50f632e013)">
     <use xlink:href="#mb83b78a9ce" x="369.932188" y="191.477506" style="fill: #1f77b4; fill-opacity: 0.8; stroke: #1f77b4; stroke-opacity: 0.8"/>
    </g>
   </g>
   <g id="line2d_26">
    <path d="M 369.932188 130.465561 
" clip-path="url(#p50f632e013)" style="fill: none; stroke: #ff7f0e; stroke-opacity: 0.8; stroke-width: 2; stroke-linecap: square"/>
    <defs>
     <path id="m1bc6d1b896" d="M 0 3 
C 0.795609 3 1.55874 2.683901 2.12132 2.12132 
C 2.683901 1.55874 3 0.795609 3 0 
C 3 -0.795609 2.683901 -1.55874 2.12132 -2.12132 
C 1.55874 -2.683901 0.795609 -3 0 -3 
C -0.795609 -3 -1.55874 -2.683901 -2.12132 -2.12132 
C -2.683901 -1.55874 -3 -0.795609 -3 0 
C -3 0.795609 -2.683901 1.55874 -2.12132 2.12132 
C -1.55874 2.683901 -0.795609 3 0 3 
z
" style="stroke: #ff7f0e; stroke-opacity: 0.8"/>
    </defs>
    <g clip-path="url(#p50f632e013)">
     <use xlink:href="#m1bc6d1b896" x="369.932188" y="130.465561" style="fill: #ff7f0e; fill-opacity: 0.8; stroke: #ff7f0e; stroke-opacity: 0.8"/>
    </g>
   </g>
   <g id="line2d_27">
    <path d="M 369.932188 130.465561 
" clip-path="url(#p50f632e013)" style="fill: none; stroke: #2ca02c; stroke-opacity: 0.8; stroke-width: 2; stroke-linecap: square"/>
    <defs>
     <path id="mb1e7c50658" d="M 0 3 
C 0.795609 3 1.55874 2.683901 2.12132 2.12132 
C 2.683901 1.55874 3 0.795609 3 0 
C 3 -0.795609 2.683901 -1.55874 2.12132 -2.12132 
C 1.55874 -2.683901 0.795609 -3 0 -3 
C -0.795609 -3 -1.55874 -2.683901 -2.12132 -2.12132 
C -2.683901 -1.55874 -3 -0.795609 -3 0 
C -3 0.795609 -2.683901 1.55874 -2.12132 2.12132 
C -1.55874 2.683901 -0.795609 3 0 3 
z
" style="stroke: #2ca02c; stroke-opacity: 0.8"/>
    </defs>
    <g clip-path="url(#p50f632e013)">
     <use xlink:href="#mb1e7c50658" x="369.932188" y="130.465561" style="fill: #2ca02c; fill-opacity: 0.8; stroke: #2ca02c; stroke-opacity: 0.8"/>
    </g>
   </g>
   <g id="line2d_28">
    <path d="M 369.932188 130.465561 
" clip-path="url(#p50f632e013)" style="fill: none; stroke: #d62728; stroke-opacity: 0.8; stroke-width: 2; stroke-linecap: square"/>
    <defs>
     <path id="m16dfd3e29c" d="M 0 3 
C 0.795609 3 1.55874 2.683901 2.12132 2.12132 
C 2.683901 1.55874 3 0.795609 3 0 
C 3 -0.795609 2.683901 -1.55874 2.12132 -2.12132 
C 1.55874 -2.683901 0.795609 -3 0 -3 
C -0.795609 -3 -1.55874 -2.683901 -2.12132 -2.12132 
C -2.683901 -1.55874 -3 -0.795609 -3 0 
C -3 0.795609 -2.683901 1.55874 -2.12132 2.12132 
C -1.55874 2.683901 -0.795609 3 0 3 
z
" style="stroke: #d62728; stroke-opacity: 0.8"/>
    </defs>
    <g clip-path="url(#p50f632e013)">
     <use xlink:href="#m16dfd3e29c" x="369.932188" y="130.465561" style="fill: #d62728; fill-opacity: 0.8; stroke: #d62728; stroke-opacity: 0.8"/>
    </g>
   </g>
   <g id="patch_3">
    <path d="M 45.703437 355.740433 
L 45.703437 17.828125 
" style="fill: none; stroke: #000000; stroke-width: 0.8; stroke-linejoin: miter; stroke-linecap: square"/>
   </g>
   <g id="patch_4">
    <path d="M 694.160938 355.740433 
L 694.160938 17.828125 
" style="fill: none; stroke: #000000; stroke-width: 0.8; stroke-linejoin: miter; stroke-linecap: square"/>
   </g>
   <g id="patch_5">
    <path d="M 45.703438 355.740433 
L 694.160938 355.740433 
" style="fill: none; stroke: #000000; stroke-width: 0.8; stroke-linejoin: miter; stroke-linecap: square"/>
   </g>
   <g id="patch_6">
    <path d="M 45.703438 17.828125 
L 694.160938 17.828125 
" style="fill: none; stroke: #000000; stroke-width: 0.8; stroke-linejoin: miter; stroke-linecap: square"/>
   </g>
   <g id="legend_1">
    <g id="LineCollection_5">
     <path d="M 563.307813 35.328125 
L 563.307813 25.328125 
" style="fill: none; stroke: #1f77b4; stroke-opacity: 0.8; stroke-width: 2"/>
    </g>
    <g id="line2d_29">
     <g>
      <use xlink:href="#m5bf1c27d52" x="563.307813" y="35.328125" style="fill: #1f77b4; fill-opacity: 0.8; stroke: #1f77b4; stroke-opacity: 0.8; stroke-width: 1.5"/>
     </g>
    </g>
    <g id="line2d_30">
     <g>
      <use xlink:href="#m5bf1c27d52" x="563.307813" y="25.328125" style="fill: #1f77b4; fill-opacity: 0.8; stroke: #1f77b4; stroke-opacity: 0.8; stroke-width: 1.5"/>
     </g>
    </g>
    <g id="line2d_31">
     <path d="M 553.307813 30.328125 
L 573.307813 30.328125 
" style="fill: none; stroke: #1f77b4; stroke-opacity: 0.8; stroke-width: 2; stroke-linecap: square"/>
    </g>
    <g id="line2d_32">
     <g>
      <use xlink:href="#mb83b78a9ce" x="563.307813" y="30.328125" style="fill: #1f77b4; fill-opacity: 0.8; stroke: #1f77b4; stroke-opacity: 0.8"/>
     </g>
    </g>
    <g id="text_10">
     <!-- Con -->
     <g transform="translate(581.307813 33.828125) scale(0.1 -0.1)">
      <defs>
       <path id="WenQuanYiZenHei-43" d="M 3681 1369 
Q 3388 163 2413 -31 
Q 2238 -63 2056 -63 
Q 1075 -63 588 844 
Q 269 1444 269 2238 
Q 269 3294 819 3913 
Q 1306 4456 2100 4456 
Q 3031 4456 3469 3638 
Q 3613 3375 3681 3050 
L 3163 2956 
Q 2906 3894 2244 3981 
Q 2163 3994 2081 3994 
Q 1281 3994 994 3075 
Q 869 2675 869 2194 
Q 869 1350 1231 838 
Q 1544 394 2056 394 
Q 2888 394 3163 1406 
Q 3175 1444 3181 1481 
L 3681 1369 
z
" transform="scale(0.015625)"/>
       <path id="WenQuanYiZenHei-6f" d="M 3175 1644 
Q 3175 813 2681 331 
Q 2281 -63 1663 -63 
Q 856 -63 481 656 
Q 256 1088 256 1650 
Q 256 2494 763 2969 
Q 1150 3338 1750 3338 
Q 2525 3338 2919 2656 
Q 3175 2219 3175 1644 
z
M 2619 1650 
Q 2619 2481 2181 2788 
Q 1981 2925 1706 2925 
Q 1069 2925 875 2188 
Q 813 1938 813 1650 
Q 813 750 1288 463 
Q 1463 350 1706 350 
Q 2400 350 2575 1169 
Q 2619 1394 2619 1650 
z
" transform="scale(0.015625)"/>
       <path id="WenQuanYiZenHei-6e" d="M 3013 0 
L 2513 0 
L 2513 2013 
Q 2513 2425 2444 2575 
Q 2438 2594 2425 2613 
Q 2288 2856 1956 2900 
Q 1913 2906 1869 2906 
Q 1263 2906 1038 2288 
Q 944 2019 944 1700 
L 944 0 
L 444 0 
L 444 3250 
L 913 3250 
L 913 2650 
L 925 2650 
Q 1156 3150 1644 3288 
Q 1788 3338 1938 3338 
Q 2544 3338 2844 2856 
L 2863 2831 
Q 3013 2569 3013 1931 
L 3013 0 
z
" transform="scale(0.015625)"/>
      </defs>
      <use xlink:href="#WenQuanYiZenHei-43"/>
      <use xlink:href="#WenQuanYiZenHei-6f" x="61.914062"/>
      <use xlink:href="#WenQuanYiZenHei-6e" x="115.820312"/>
     </g>
    </g>
    <g id="LineCollection_6">
     <path d="M 563.307813 48.989062 
L 563.307813 38.989062 
" style="fill: none; stroke: #ff7f0e; stroke-opacity: 0.8; stroke-width: 2"/>
    </g>
    <g id="line2d_33">
     <g>
      <use xlink:href="#m8a79816d1c" x="563.307813" y="48.989062" style="fill: #ff7f0e; fill-opacity: 0.8; stroke: #ff7f0e; stroke-opacity: 0.8; stroke-width: 1.5"/>
     </g>
    </g>
    <g id="line2d_34">
     <g>
      <use xlink:href="#m8a79816d1c" x="563.307813" y="38.989062" style="fill: #ff7f0e; fill-opacity: 0.8; stroke: #ff7f0e; stroke-opacity: 0.8; stroke-width: 1.5"/>
     </g>
    </g>
    <g id="line2d_35">
     <path d="M 553.307813 43.989062 
L 573.307813 43.989062 
" style="fill: none; stroke: #ff7f0e; stroke-opacity: 0.8; stroke-width: 2; stroke-linecap: square"/>
    </g>
    <g id="line2d_36">
     <g>
      <use xlink:href="#m1bc6d1b896" x="563.307813" y="43.989062" style="fill: #ff7f0e; fill-opacity: 0.8; stroke: #ff7f0e; stroke-opacity: 0.8"/>
     </g>
    </g>
    <g id="text_11">
     <!-- Non-pretreatment TNBS -->
     <g transform="translate(581.307813 47.489062) scale(0.1 -0.1)">
      <defs>
       <path id="WenQuanYiZenHei-4e" d="M 3756 0 
L 3219 0 
L 988 3825 
L 988 0 
L 525 0 
L 525 4388 
L 1219 4388 
L 3294 813 
L 3294 4388 
L 3756 4388 
L 3756 0 
z
" transform="scale(0.015625)"/>
       <path id="WenQuanYiZenHei-70" d="M 3256 1650 
Q 3256 838 2856 350 
Q 2513 -63 1969 -63 
Q 1344 -63 1000 513 
L 1000 -1063 
L 500 -1063 
L 500 3250 
L 956 3250 
L 956 2625 
L 969 2625 
Q 1169 3163 1688 3294 
Q 1825 3338 1969 3338 
Q 2713 3338 3056 2600 
Q 3256 2175 3256 1650 
z
M 2694 1631 
Q 2694 2419 2319 2731 
L 2181 2825 
Q 2038 2894 1856 2894 
Q 1419 2894 1150 2463 
Q 1106 2400 1075 2325 
Q 1000 2169 1000 2100 
L 1000 1275 
Q 1000 875 1319 581 
Q 1563 356 1856 356 
Q 2525 356 2669 1238 
Q 2694 1419 2694 1631 
z
" transform="scale(0.015625)"/>
       <path id="WenQuanYiZenHei-72" d="M 2063 2850 
L 1956 2850 
Q 1356 2850 1094 2281 
Q 963 1988 963 1638 
L 963 0 
L 463 0 
L 463 3250 
L 906 3250 
L 906 2488 
L 919 2488 
Q 1219 3344 1819 3344 
Q 1894 3344 2063 3325 
L 2063 2850 
z
" transform="scale(0.015625)"/>
       <path id="WenQuanYiZenHei-65" d="M 3163 1588 
L 800 1588 
Q 794 963 1088 631 
Q 1331 356 1769 356 
Q 2313 356 2569 831 
Q 2606 900 2638 988 
L 3113 888 
Q 2931 325 2363 69 
Q 2063 -63 1725 -63 
Q 888 -63 488 625 
Q 238 1050 238 1625 
Q 238 2431 725 2925 
Q 1125 3338 1744 3338 
Q 2588 3338 2956 2606 
Q 3163 2200 3163 1663 
L 3163 1588 
z
M 2613 1956 
Q 2619 2488 2288 2763 
Q 2063 2950 1744 2950 
Q 1250 2950 988 2500 
Q 838 2256 825 1956 
L 2613 1956 
z
" transform="scale(0.015625)"/>
       <path id="WenQuanYiZenHei-74" d="M 1994 -25 
L 1406 -69 
Q 594 -69 594 1000 
L 594 2881 
L 19 2881 
L 19 3275 
L 594 3275 
L 594 4081 
L 1094 4138 
L 1094 3275 
L 1819 3275 
L 1819 2881 
L 1094 2881 
L 1094 913 
Q 1150 363 1538 331 
Q 1538 331 1994 369 
L 1994 -25 
z
" transform="scale(0.015625)"/>
       <path id="WenQuanYiZenHei-61" d="M 3181 0 
L 2681 0 
L 2625 606 
Q 2294 -63 1488 -63 
Q 856 -63 544 331 
Q 350 575 350 919 
Q 350 1400 763 1706 
Q 850 1781 956 1825 
Q 1375 2025 2344 2019 
L 2625 2019 
L 2625 2156 
Q 2625 2756 2200 2894 
L 1975 2938 
Q 1894 2944 1800 2944 
Q 1025 2944 906 2369 
L 444 2444 
Q 525 3075 1281 3263 
Q 1544 3338 1844 3338 
Q 2675 3338 2931 2894 
Q 3113 2594 3113 1944 
L 3113 688 
Q 3113 244 3181 0 
z
M 2625 1425 
L 2625 1638 
L 2206 1638 
Q 888 1638 888 894 
Q 888 488 1319 363 
Q 1444 325 1594 325 
Q 2125 325 2425 769 
Q 2625 1063 2625 1425 
z
" transform="scale(0.015625)"/>
       <path id="WenQuanYiZenHei-6d" d="M 4813 0 
L 4313 0 
L 4313 2069 
Q 4313 2763 3881 2900 
Q 3788 2925 3681 2925 
Q 3313 2925 3050 2563 
Q 2881 2306 2875 1863 
L 2875 1756 
L 2875 0 
L 2375 0 
L 2375 2063 
Q 2375 2750 1931 2894 
Q 1838 2925 1719 2925 
Q 1413 2925 1163 2644 
Q 1144 2625 1131 2606 
Q 938 2356 938 1863 
L 938 0 
L 438 0 
L 438 3250 
L 888 3250 
L 888 2625 
L 900 2625 
Q 1100 3100 1531 3269 
Q 1694 3338 1875 3338 
Q 2394 3338 2663 2888 
Q 2750 2738 2788 2563 
Q 3013 3119 3506 3281 
Q 3669 3338 3838 3338 
Q 4263 3338 4556 3006 
L 4656 2869 
Q 4813 2606 4813 2050 
L 4813 0 
z
" transform="scale(0.015625)"/>
       <path id="WenQuanYiZenHei-20" transform="scale(0.015625)"/>
       <path id="WenQuanYiZenHei-54" d="M 3119 3913 
L 1869 3913 
L 1869 0 
L 1319 0 
L 1319 3913 
L 69 3913 
L 69 4388 
L 3119 4388 
L 3119 3913 
z
" transform="scale(0.015625)"/>
       <path id="WenQuanYiZenHei-42" d="M 3675 1213 
Q 3675 613 3250 281 
Q 2913 13 2313 0 
L 2169 0 
L 519 0 
L 519 4388 
L 2175 4388 
Q 2706 4388 2981 4244 
Q 3025 4219 3081 4188 
Q 3531 3881 3538 3319 
Q 3538 2744 3088 2463 
L 2888 2375 
Q 2831 2350 2763 2338 
L 2763 2325 
Q 3313 2206 3550 1725 
Q 3675 1494 3675 1213 
z
M 2994 3250 
Q 2994 3856 2313 3938 
Q 2225 3944 2131 3944 
L 1069 3944 
L 1069 2506 
L 1981 2506 
Q 2994 2506 2994 3250 
z
M 3125 1238 
Q 3125 1638 2838 1894 
Q 2825 1906 2806 1919 
Q 2588 2088 2113 2088 
L 1069 2088 
L 1069 469 
L 2144 469 
Q 2975 469 3106 1038 
Q 3125 1125 3125 1238 
z
" transform="scale(0.015625)"/>
       <path id="WenQuanYiZenHei-53" d="M 3688 1256 
Q 3688 444 2931 106 
Q 2544 -63 2050 -63 
Q 700 -63 269 1181 
L 763 1294 
Q 963 613 1663 450 
Q 1850 406 2063 406 
Q 2700 406 2975 750 
Q 3119 925 3119 1181 
Q 3119 1631 2550 1850 
L 2144 1963 
Q 1406 2150 1338 2175 
Q 1013 2281 844 2431 
Q 488 2750 488 3244 
Q 488 3994 1181 4300 
Q 1538 4456 1975 4456 
Q 2881 4456 3338 3800 
L 3463 3569 
Q 3506 3481 3538 3381 
L 3038 3244 
Q 2956 3675 2488 3900 
Q 2238 4019 1963 4019 
Q 1506 4019 1219 3756 
Q 1025 3575 1025 3319 
Q 1025 2888 1563 2688 
Q 1694 2644 2394 2481 
Q 3019 2338 3275 2125 
Q 3688 1794 3688 1256 
z
" transform="scale(0.015625)"/>
      </defs>
      <use xlink:href="#WenQuanYiZenHei-4e"/>
      <use xlink:href="#WenQuanYiZenHei-6f" x="65.917969"/>
      <use xlink:href="#WenQuanYiZenHei-6e" x="119.824219"/>
      <use xlink:href="#WenQuanYiZenHei-2d" x="173.730469"/>
      <use xlink:href="#WenQuanYiZenHei-70" x="203.710938"/>
      <use xlink:href="#WenQuanYiZenHei-72" x="257.617188"/>
      <use xlink:href="#WenQuanYiZenHei-65" x="289.550781"/>
      <use xlink:href="#WenQuanYiZenHei-74" x="343.457031"/>
      <use xlink:href="#WenQuanYiZenHei-72" x="375.390625"/>
      <use xlink:href="#WenQuanYiZenHei-65" x="407.324219"/>
      <use xlink:href="#WenQuanYiZenHei-61" x="461.230469"/>
      <use xlink:href="#WenQuanYiZenHei-74" x="515.136719"/>
      <use xlink:href="#WenQuanYiZenHei-6d" x="547.070312"/>
      <use xlink:href="#WenQuanYiZenHei-65" x="629.003906"/>
      <use xlink:href="#WenQuanYiZenHei-6e" x="682.910156"/>
      <use xlink:href="#WenQuanYiZenHei-74" x="736.816406"/>
      <use xlink:href="#WenQuanYiZenHei-20" x="768.75"/>
      <use xlink:href="#WenQuanYiZenHei-54" x="798.730469"/>
      <use xlink:href="#WenQuanYiZenHei-4e" x="848.730469"/>
      <use xlink:href="#WenQuanYiZenHei-42" x="914.648438"/>
      <use xlink:href="#WenQuanYiZenHei-53" x="976.5625"/>
     </g>
    </g>
    <g id="LineCollection_7">
     <path d="M 563.307813 62.65 
L 563.307813 52.65 
" style="fill: none; stroke: #2ca02c; stroke-opacity: 0.8; stroke-width: 2"/>
    </g>
    <g id="line2d_37">
     <g>
      <use xlink:href="#m9b8dcffb65" x="563.307813" y="62.65" style="fill: #2ca02c; fill-opacity: 0.8; stroke: #2ca02c; stroke-opacity: 0.8; stroke-width: 1.5"/>
     </g>
    </g>
    <g id="line2d_38">
     <g>
      <use xlink:href="#m9b8dcffb65" x="563.307813" y="52.65" style="fill: #2ca02c; fill-opacity: 0.8; stroke: #2ca02c; stroke-opacity: 0.8; stroke-width: 1.5"/>
     </g>
    </g>
    <g id="line2d_39">
     <path d="M 553.307813 57.65 
L 573.307813 57.65 
" style="fill: none; stroke: #2ca02c; stroke-opacity: 0.8; stroke-width: 2; stroke-linecap: square"/>
    </g>
    <g id="line2d_40">
     <g>
      <use xlink:href="#mb1e7c50658" x="563.307813" y="57.65" style="fill: #2ca02c; fill-opacity: 0.8; stroke: #2ca02c; stroke-opacity: 0.8"/>
     </g>
    </g>
    <g id="text_12">
     <!-- TNBS -->
     <g transform="translate(581.307813 61.15) scale(0.1 -0.1)">
      <use xlink:href="#WenQuanYiZenHei-54"/>
      <use xlink:href="#WenQuanYiZenHei-4e" x="50"/>
      <use xlink:href="#WenQuanYiZenHei-42" x="115.917969"/>
      <use xlink:href="#WenQuanYiZenHei-53" x="177.832031"/>
     </g>
    </g>
    <g id="LineCollection_8">
     <path d="M 563.307813 76.310938 
L 563.307813 66.310938 
" style="fill: none; stroke: #d62728; stroke-opacity: 0.8; stroke-width: 2"/>
    </g>
    <g id="line2d_41">
     <g>
      <use xlink:href="#m87bad32ea7" x="563.307813" y="76.310938" style="fill: #d62728; fill-opacity: 0.8; stroke: #d62728; stroke-opacity: 0.8; stroke-width: 1.5"/>
     </g>
    </g>
    <g id="line2d_42">
     <g>
      <use xlink:href="#m87bad32ea7" x="563.307813" y="66.310938" style="fill: #d62728; fill-opacity: 0.8; stroke: #d62728; stroke-opacity: 0.8; stroke-width: 1.5"/>
     </g>
    </g>
    <g id="line2d_43">
     <path d="M 553.307813 71.310938 
L 573.307813 71.310938 
" style="fill: none; stroke: #d62728; stroke-opacity: 0.8; stroke-width: 2; stroke-linecap: square"/>
    </g>
    <g id="line2d_44">
     <g>
      <use xlink:href="#m16dfd3e29c" x="563.307813" y="71.310938" style="fill: #d62728; fill-opacity: 0.8; stroke: #d62728; stroke-opacity: 0.8"/>
     </g>
    </g>
    <g id="text_13">
     <!-- TNBS+SH 100mpk bid -->
     <g transform="translate(581.307813 74.810938) scale(0.1 -0.1)">
      <defs>
       <path id="WenQuanYiZenHei-2b" d="M 3569 1638 
L 2125 1638 
L 2125 194 
L 1706 194 
L 1706 1638 
L 263 1638 
L 263 2056 
L 1706 2056 
L 1706 3500 
L 2125 3500 
L 2125 2056 
L 3569 2056 
L 3569 1638 
z
" transform="scale(0.015625)"/>
       <path id="WenQuanYiZenHei-48" d="M 3656 0 
L 3106 0 
L 3106 2088 
L 1069 2088 
L 1069 0 
L 519 0 
L 519 4388 
L 1069 4388 
L 1069 2569 
L 3106 2569 
L 3106 4388 
L 3656 4388 
L 3656 0 
z
" transform="scale(0.015625)"/>
       <path id="WenQuanYiZenHei-6b" d="M 3150 0 
L 2619 0 
L 1669 1813 
L 975 1006 
L 975 0 
L 475 0 
L 475 4388 
L 975 4388 
L 975 1581 
L 2475 3238 
L 3013 3238 
L 2006 2100 
L 3150 0 
z
" transform="scale(0.015625)"/>
       <path id="WenQuanYiZenHei-62" d="M 3181 1669 
Q 3181 850 2756 356 
Q 2400 -63 1825 -63 
Q 1306 -63 956 363 
Q 881 456 825 556 
L 638 0 
L 394 0 
L 394 4388 
L 894 4388 
L 894 2713 
L 919 2713 
Q 1250 3338 1875 3338 
Q 2625 3338 2975 2619 
Q 3181 2194 3181 1669 
z
M 2644 1588 
Q 2644 2388 2281 2738 
L 2150 2838 
Q 1988 2931 1788 2931 
Q 1363 2931 1081 2525 
Q 894 2250 894 1938 
L 894 1363 
Q 894 831 1244 538 
Q 1463 338 1788 338 
Q 2375 338 2575 1031 
Q 2644 1288 2644 1588 
z
" transform="scale(0.015625)"/>
       <path id="WenQuanYiZenHei-69" d="M 1044 3825 
L 494 3825 
L 494 4388 
L 1044 4388 
L 1044 3825 
z
M 1019 0 
L 519 0 
L 519 3250 
L 1019 3250 
L 1019 0 
z
" transform="scale(0.015625)"/>
       <path id="WenQuanYiZenHei-64" d="M 3025 0 
L 2575 0 
L 2575 575 
L 2563 575 
Q 2244 -63 1544 -63 
Q 806 -63 456 663 
Q 244 1094 244 1625 
Q 244 2425 663 2919 
Q 1025 3338 1588 3338 
Q 2156 3338 2525 2813 
L 2525 4388 
L 3025 4388 
L 3025 0 
z
M 2525 1406 
L 2525 1925 
Q 2525 2550 2119 2813 
Q 1913 2938 1631 2938 
Q 1075 2938 869 2275 
Q 781 1994 781 1681 
Q 781 775 1213 475 
Q 1381 350 1619 350 
Q 2119 350 2381 819 
Q 2525 1088 2525 1406 
z
" transform="scale(0.015625)"/>
      </defs>
      <use xlink:href="#WenQuanYiZenHei-54"/>
      <use xlink:href="#WenQuanYiZenHei-4e" x="50"/>
      <use xlink:href="#WenQuanYiZenHei-42" x="115.917969"/>
      <use xlink:href="#WenQuanYiZenHei-53" x="177.832031"/>
      <use xlink:href="#WenQuanYiZenHei-2b" x="239.746094"/>
      <use xlink:href="#WenQuanYiZenHei-53" x="299.707031"/>
      <use xlink:href="#WenQuanYiZenHei-48" x="361.621094"/>
      <use xlink:href="#WenQuanYiZenHei-20" x="427.539062"/>
      <use xlink:href="#WenQuanYiZenHei-31" x="457.519531"/>
      <use xlink:href="#WenQuanYiZenHei-30" x="517.480469"/>
      <use xlink:href="#WenQuanYiZenHei-30" x="577.441406"/>
      <use xlink:href="#WenQuanYiZenHei-6d" x="637.402344"/>
      <use xlink:href="#WenQuanYiZenHei-70" x="719.335938"/>
      <use xlink:href="#WenQuanYiZenHei-6b" x="773.242188"/>
      <use xlink:href="#WenQuanYiZenHei-20" x="823.242188"/>
      <use xlink:href="#WenQuanYiZenHei-62" x="853.222656"/>
      <use xlink:href="#WenQuanYiZenHei-69" x="907.128906"/>
      <use xlink:href="#WenQuanYiZenHei-64" x="931.054688"/>
     </g>
    </g>
   </g>
  </g>
 </g>
 <defs>
  <clipPath id="p50f632e013">
   <rect x="45.703437" y="17.828125" width="648.4575" height="337.912308"/>
  </clipPath>
 </defs>
</svg>
