<?xml version="1.0" encoding="utf-8" standalone="no"?>
<!DOCTYPE svg PUBLIC "-//W3C//DTD SVG 1.1//EN"
  "http://www.w3.org/Graphics/SVG/1.1/DTD/svg11.dtd">
<svg xmlns:xlink="http://www.w3.org/1999/xlink" width="708.647812pt" height="421.138748pt" viewBox="0 0 708.647812 421.138748" xmlns="http://www.w3.org/2000/svg" version="1.1">
 <metadata>
  <rdf:RDF xmlns:dc="http://purl.org/dc/elements/1.1/" xmlns:cc="http://creativecommons.org/ns#" xmlns:rdf="http://www.w3.org/1999/02/22-rdf-syntax-ns#">
   <cc:Work>
    <dc:type rdf:resource="http://purl.org/dc/dcmitype/StillImage"/>
    <dc:date>2025-12-26T13:34:07.807389</dc:date>
    <dc:format>image/svg+xml</dc:format>
    <dc:creator>
     <cc:Agent>
      <dc:title>Matplotlib v3.7.2, https://matplotlib.org/</dc:title>
     </cc:Agent>
    </dc:creator>
   </cc:Work>
  </rdf:RDF>
 </metadata>
 <defs>
  <style type="text/css">*{stroke-linejoin: round; stroke-linecap: butt}</style>
 </defs>
 <g id="figure_1">
  <g id="patch_1">
   <path d="M -0 421.138748 
L 708.647812 421.138748 
L 708.647812 0 
L -0 0 
z
" style="fill: #ffffff"/>
  </g>
  <g id="axes_1">
   <g id="patch_2">
    <path d="M 52.439063 355.552308 
L 694.247812 355.552308 
L 694.247812 14.4 
L 52.439063 14.4 
z
" style="fill: #ffffff"/>
   </g>
   <g id="matplotlib.axis_1">
    <g id="xtick_1">
     <g id="line2d_1">
      <path d="M 81.612188 355.552308 
L 81.612188 14.4 
" clip-path="url(#peaae9c5576)" style="fill: none; stroke-dasharray: 2.96,1.28; stroke-dashoffset: 0; stroke: #b0b0b0; stroke-opacity: 0.3; stroke-width: 0.8"/>
     </g>
     <g id="line2d_2">
      <defs>
       <path id="m96b41b559b" d="M 0 0 
L 0 3.5 
" style="stroke: #000000; stroke-width: 0.8"/>
      </defs>
      <g>
       <use xlink:href="#m96b41b559b" x="81.612188" y="355.552308" style="stroke: #000000; stroke-width: 0.8"/>
      </g>
     </g>
     <g id="text_1">
      <!-- 2025-12-17 -->
      <g transform="translate(42.273849 405.564288) rotate(-45) scale(0.1 -0.1)">
       <defs>
        <path id="WenQuanYiZenHei-32" d="M 3488 0 
L 369 0 
L 369 456 
L 2150 1850 
Q 2931 2463 2931 3144 
Q 2931 3619 2488 3863 
Q 2231 4013 1931 4013 
Q 1425 4013 1113 3619 
Q 894 3356 881 3013 
L 369 3169 
Q 531 3981 1213 4300 
Q 1544 4456 1950 4456 
Q 2631 4456 3088 4044 
L 3225 3888 
L 3350 3706 
Q 3481 3444 3481 3144 
Q 3481 2313 2519 1569 
L 1069 456 
L 3488 456 
L 3488 0 
z
" transform="scale(0.015625)"/>
        <path id="WenQuanYiZenHei-30" d="M 3581 2175 
Q 3581 1288 3169 638 
Q 2713 -63 1938 -63 
Q 1025 -63 563 831 
Q 256 1425 256 2188 
Q 256 3188 700 3819 
Q 1138 4456 1888 4456 
Q 2863 4456 3306 3500 
Q 3581 2925 3581 2175 
z
M 3019 2100 
Q 3019 3356 2500 3806 
L 2350 3919 
Q 2144 4031 1888 4031 
Q 1100 4031 888 2956 
Q 819 2625 819 2225 
Q 819 1013 1338 569 
Q 1588 356 1938 356 
Q 2675 356 2925 1294 
Q 3019 1663 3019 2100 
z
" transform="scale(0.015625)"/>
        <path id="WenQuanYiZenHei-35" d="M 3531 1488 
Q 3531 688 2913 250 
Q 2456 -63 1844 -63 
Q 1175 -63 706 350 
Q 413 613 306 975 
L 781 1131 
Q 1000 538 1569 406 
Q 1706 369 1856 369 
Q 2550 369 2850 869 
Q 3000 1131 3000 1494 
Q 3000 2056 2581 2356 
Q 2319 2538 1969 2538 
Q 1400 2538 1031 2075 
Q 981 2013 938 1938 
L 500 2031 
L 644 4388 
L 3244 4388 
L 3200 3919 
L 1044 3919 
L 950 2500 
Q 1431 2975 2006 2975 
Q 2713 2975 3163 2475 
Q 3531 2063 3531 1488 
z
" transform="scale(0.015625)"/>
        <path id="WenQuanYiZenHei-2d" d="M 1363 1444 
L 0 1444 
L 0 1844 
L 1363 1844 
L 1363 1444 
z
" transform="scale(0.015625)"/>
        <path id="WenQuanYiZenHei-31" d="M 3556 0 
L 488 0 
L 488 406 
L 1800 406 
L 1800 3725 
Q 1231 3125 588 2788 
L 588 3338 
Q 1456 3781 1931 4388 
L 2331 4388 
L 2331 406 
L 3556 406 
L 3556 0 
z
" transform="scale(0.015625)"/>
        <path id="WenQuanYiZenHei-37" d="M 3400 4056 
Q 1838 2175 1838 0 
L 1275 0 
Q 1269 1438 2056 2825 
Q 2381 3400 2825 3913 
L 444 3913 
L 500 4388 
L 3400 4388 
L 3400 4056 
z
" transform="scale(0.015625)"/>
       </defs>
       <use xlink:href="#WenQuanYiZenHei-32"/>
       <use xlink:href="#WenQuanYiZenHei-30" x="59.960938"/>
       <use xlink:href="#WenQuanYiZenHei-32" x="119.921875"/>
       <use xlink:href="#WenQuanYiZenHei-35" x="179.882812"/>
       <use xlink:href="#WenQuanYiZenHei-2d" x="239.84375"/>
       <use xlink:href="#WenQuanYiZenHei-31" x="269.824219"/>
       <use xlink:href="#WenQuanYiZenHei-32" x="329.785156"/>
       <use xlink:href="#WenQuanYiZenHei-2d" x="389.746094"/>
       <use xlink:href="#WenQuanYiZenHei-31" x="419.726562"/>
       <use xlink:href="#WenQuanYiZenHei-37" x="479.6875"/>
      </g>
     </g>
    </g>
    <g id="xtick_2">
     <g id="line2d_3">
      <path d="M 164.963973 355.552308 
L 164.963973 14.4 
" clip-path="url(#peaae9c5576)" style="fill: none; stroke-dasharray: 2.96,1.28; stroke-dashoffset: 0; stroke: #b0b0b0; stroke-opacity: 0.3; stroke-width: 0.8"/>
     </g>
     <g id="line2d_4">
      <g>
       <use xlink:href="#m96b41b559b" x="164.963973" y="355.552308" style="stroke: #000000; stroke-width: 0.8"/>
      </g>
     </g>
     <g id="text_2">
      <!-- 2025-12-18 -->
      <g transform="translate(125.625634 405.564288) rotate(-45) scale(0.1 -0.1)">
       <defs>
        <path id="WenQuanYiZenHei-38" d="M 3619 1175 
Q 3619 431 2850 100 
Q 2444 -63 1944 -63 
Q 1231 -63 725 269 
Q 225 594 225 1125 
Q 225 1881 1269 2281 
Q 719 2481 519 2938 
Q 444 3119 444 3319 
Q 444 4000 1144 4294 
Q 1519 4456 1963 4456 
Q 2669 4456 3094 4094 
Q 3425 3813 3425 3369 
Q 3425 2638 2575 2356 
Q 3231 2056 3450 1725 
Q 3619 1488 3619 1175 
z
M 2944 3344 
Q 2944 3906 2288 4019 
Q 2138 4044 1969 4044 
Q 1438 4044 1163 3775 
Q 1000 3613 1000 3375 
Q 1000 2925 1594 2663 
Q 1756 2588 1931 2550 
Q 2581 2725 2788 2956 
Q 2944 3125 2944 3344 
z
M 3075 1094 
Q 3075 1738 1875 2050 
Q 1094 1881 850 1463 
Q 763 1313 763 1131 
Q 763 569 1456 406 
Q 1681 344 1944 344 
Q 2519 344 2850 619 
Q 3075 813 3075 1094 
z
" transform="scale(0.015625)"/>
       </defs>
       <use xlink:href="#WenQuanYiZenHei-32"/>
       <use xlink:href="#WenQuanYiZenHei-30" x="59.960938"/>
       <use xlink:href="#WenQuanYiZenHei-32" x="119.921875"/>
       <use xlink:href="#WenQuanYiZenHei-35" x="179.882812"/>
       <use xlink:href="#WenQuanYiZenHei-2d" x="239.84375"/>
       <use xlink:href="#WenQuanYiZenHei-31" x="269.824219"/>
       <use xlink:href="#WenQuanYiZenHei-32" x="329.785156"/>
       <use xlink:href="#WenQuanYiZenHei-2d" x="389.746094"/>
       <use xlink:href="#WenQuanYiZenHei-31" x="419.726562"/>
       <use xlink:href="#WenQuanYiZenHei-38" x="479.6875"/>
      </g>
     </g>
    </g>
    <g id="xtick_3">
     <g id="line2d_5">
      <path d="M 248.315759 355.552308 
L 248.315759 14.4 
" clip-path="url(#peaae9c5576)" style="fill: none; stroke-dasharray: 2.96,1.28; stroke-dashoffset: 0; stroke: #b0b0b0; stroke-opacity: 0.3; stroke-width: 0.8"/>
     </g>
     <g id="line2d_6">
      <g>
       <use xlink:href="#m96b41b559b" x="248.315759" y="355.552308" style="stroke: #000000; stroke-width: 0.8"/>
      </g>
     </g>
     <g id="text_3">
      <!-- 2025-12-19 -->
      <g transform="translate(208.97742 405.564288) rotate(-45) scale(0.1 -0.1)">
       <defs>
        <path id="WenQuanYiZenHei-39" d="M 3544 2300 
Q 3544 1163 3019 513 
Q 2563 -63 1775 -63 
Q 956 -63 563 488 
Q 463 631 394 813 
L 838 975 
Q 1025 494 1550 388 
Q 1656 369 1775 369 
Q 2594 369 2900 1325 
Q 3044 1769 3038 2313 
L 3025 2313 
Q 2675 1638 1944 1544 
Q 1844 1531 1744 1531 
Q 1050 1531 625 2031 
Q 294 2419 294 2963 
Q 294 3656 813 4094 
Q 1238 4456 1819 4456 
Q 2988 4456 3381 3363 
Q 3544 2900 3544 2300 
z
M 2925 2994 
Q 2925 3563 2469 3844 
Q 2206 4006 1863 4006 
Q 1275 4006 988 3563 
Q 844 3344 825 3056 
Q 819 3006 819 2956 
Q 819 2413 1269 2131 
Q 1538 1963 1875 1963 
Q 2363 1963 2681 2350 
Q 2925 2638 2925 2994 
z
" transform="scale(0.015625)"/>
       </defs>
       <use xlink:href="#WenQuanYiZenHei-32"/>
       <use xlink:href="#WenQuanYiZenHei-30" x="59.960938"/>
       <use xlink:href="#WenQuanYiZenHei-32" x="119.921875"/>
       <use xlink:href="#WenQuanYiZenHei-35" x="179.882812"/>
       <use xlink:href="#WenQuanYiZenHei-2d" x="239.84375"/>
       <use xlink:href="#WenQuanYiZenHei-31" x="269.824219"/>
       <use xlink:href="#WenQuanYiZenHei-32" x="329.785156"/>
       <use xlink:href="#WenQuanYiZenHei-2d" x="389.746094"/>
       <use xlink:href="#WenQuanYiZenHei-31" x="419.726562"/>
       <use xlink:href="#WenQuanYiZenHei-39" x="479.6875"/>
      </g>
     </g>
    </g>
    <g id="xtick_4">
     <g id="line2d_7">
      <path d="M 331.667545 355.552308 
L 331.667545 14.4 
" clip-path="url(#peaae9c5576)" style="fill: none; stroke-dasharray: 2.96,1.28; stroke-dashoffset: 0; stroke: #b0b0b0; stroke-opacity: 0.3; stroke-width: 0.8"/>
     </g>
     <g id="line2d_8">
      <g>
       <use xlink:href="#m96b41b559b" x="331.667545" y="355.552308" style="stroke: #000000; stroke-width: 0.8"/>
      </g>
     </g>
     <g id="text_4">
      <!-- 2025-12-20 -->
      <g transform="translate(292.329206 405.564288) rotate(-45) scale(0.1 -0.1)">
       <use xlink:href="#WenQuanYiZenHei-32"/>
       <use xlink:href="#WenQuanYiZenHei-30" x="59.960938"/>
       <use xlink:href="#WenQuanYiZenHei-32" x="119.921875"/>
       <use xlink:href="#WenQuanYiZenHei-35" x="179.882812"/>
       <use xlink:href="#WenQuanYiZenHei-2d" x="239.84375"/>
       <use xlink:href="#WenQuanYiZenHei-31" x="269.824219"/>
       <use xlink:href="#WenQuanYiZenHei-32" x="329.785156"/>
       <use xlink:href="#WenQuanYiZenHei-2d" x="389.746094"/>
       <use xlink:href="#WenQuanYiZenHei-32" x="419.726562"/>
       <use xlink:href="#WenQuanYiZenHei-30" x="479.6875"/>
      </g>
     </g>
    </g>
    <g id="xtick_5">
     <g id="line2d_9">
      <path d="M 415.01933 355.552308 
L 415.01933 14.4 
" clip-path="url(#peaae9c5576)" style="fill: none; stroke-dasharray: 2.96,1.28; stroke-dashoffset: 0; stroke: #b0b0b0; stroke-opacity: 0.3; stroke-width: 0.8"/>
     </g>
     <g id="line2d_10">
      <g>
       <use xlink:href="#m96b41b559b" x="415.01933" y="355.552308" style="stroke: #000000; stroke-width: 0.8"/>
      </g>
     </g>
     <g id="text_5">
      <!-- 2025-12-21 -->
      <g transform="translate(375.680991 405.564288) rotate(-45) scale(0.1 -0.1)">
       <use xlink:href="#WenQuanYiZenHei-32"/>
       <use xlink:href="#WenQuanYiZenHei-30" x="59.960938"/>
       <use xlink:href="#WenQuanYiZenHei-32" x="119.921875"/>
       <use xlink:href="#WenQuanYiZenHei-35" x="179.882812"/>
       <use xlink:href="#WenQuanYiZenHei-2d" x="239.84375"/>
       <use xlink:href="#WenQuanYiZenHei-31" x="269.824219"/>
       <use xlink:href="#WenQuanYiZenHei-32" x="329.785156"/>
       <use xlink:href="#WenQuanYiZenHei-2d" x="389.746094"/>
       <use xlink:href="#WenQuanYiZenHei-32" x="419.726562"/>
       <use xlink:href="#WenQuanYiZenHei-31" x="479.6875"/>
      </g>
     </g>
    </g>
    <g id="xtick_6">
     <g id="line2d_11">
      <path d="M 498.371116 355.552308 
L 498.371116 14.4 
" clip-path="url(#peaae9c5576)" style="fill: none; stroke-dasharray: 2.96,1.28; stroke-dashoffset: 0; stroke: #b0b0b0; stroke-opacity: 0.3; stroke-width: 0.8"/>
     </g>
     <g id="line2d_12">
      <g>
       <use xlink:href="#m96b41b559b" x="498.371116" y="355.552308" style="stroke: #000000; stroke-width: 0.8"/>
      </g>
     </g>
     <g id="text_6">
      <!-- 2025-12-22 -->
      <g transform="translate(459.032777 405.564288) rotate(-45) scale(0.1 -0.1)">
       <use xlink:href="#WenQuanYiZenHei-32"/>
       <use xlink:href="#WenQuanYiZenHei-30" x="59.960938"/>
       <use xlink:href="#WenQuanYiZenHei-32" x="119.921875"/>
       <use xlink:href="#WenQuanYiZenHei-35" x="179.882812"/>
       <use xlink:href="#WenQuanYiZenHei-2d" x="239.84375"/>
       <use xlink:href="#WenQuanYiZenHei-31" x="269.824219"/>
       <use xlink:href="#WenQuanYiZenHei-32" x="329.785156"/>
       <use xlink:href="#WenQuanYiZenHei-2d" x="389.746094"/>
       <use xlink:href="#WenQuanYiZenHei-32" x="419.726562"/>
       <use xlink:href="#WenQuanYiZenHei-32" x="479.6875"/>
      </g>
     </g>
    </g>
    <g id="xtick_7">
     <g id="line2d_13">
      <path d="M 581.722902 355.552308 
L 581.722902 14.4 
" clip-path="url(#peaae9c5576)" style="fill: none; stroke-dasharray: 2.96,1.28; stroke-dashoffset: 0; stroke: #b0b0b0; stroke-opacity: 0.3; stroke-width: 0.8"/>
     </g>
     <g id="line2d_14">
      <g>
       <use xlink:href="#m96b41b559b" x="581.722902" y="355.552308" style="stroke: #000000; stroke-width: 0.8"/>
      </g>
     </g>
     <g id="text_7">
      <!-- 2025-12-23 -->
      <g transform="translate(542.384563 405.564288) rotate(-45) scale(0.1 -0.1)">
       <defs>
        <path id="WenQuanYiZenHei-33" d="M 3588 1231 
Q 3588 494 2875 144 
Q 2450 -63 1925 -63 
Q 1044 -63 556 488 
Q 356 706 256 1000 
L 769 1169 
Q 994 375 1913 375 
Q 2631 375 2900 788 
Q 3019 975 3019 1231 
Q 3019 1638 2638 1881 
Q 2325 2081 1613 2069 
L 1338 2069 
L 1338 2494 
Q 1969 2494 2094 2506 
Q 2325 2544 2463 2613 
Q 2763 2756 2844 3100 
Q 2863 3169 2863 3244 
Q 2863 3744 2381 3944 
L 2163 4006 
Q 2056 4025 1931 4025 
Q 1388 4025 1075 3631 
Q 969 3488 906 3313 
L 419 3456 
Q 675 4150 1400 4369 
Q 1669 4456 1975 4456 
Q 2694 4456 3106 4050 
Q 3419 3744 3419 3275 
Q 3419 2813 3025 2513 
Q 2825 2356 2575 2319 
L 2575 2306 
Q 3181 2213 3450 1769 
Q 3588 1525 3588 1231 
z
" transform="scale(0.015625)"/>
       </defs>
       <use xlink:href="#WenQuanYiZenHei-32"/>
       <use xlink:href="#WenQuanYiZenHei-30" x="59.960938"/>
       <use xlink:href="#WenQuanYiZenHei-32" x="119.921875"/>
       <use xlink:href="#WenQuanYiZenHei-35" x="179.882812"/>
       <use xlink:href="#WenQuanYiZenHei-2d" x="239.84375"/>
       <use xlink:href="#WenQuanYiZenHei-31" x="269.824219"/>
       <use xlink:href="#WenQuanYiZenHei-32" x="329.785156"/>
       <use xlink:href="#WenQuanYiZenHei-2d" x="389.746094"/>
       <use xlink:href="#WenQuanYiZenHei-32" x="419.726562"/>
       <use xlink:href="#WenQuanYiZenHei-33" x="479.6875"/>
      </g>
     </g>
    </g>
    <g id="xtick_8">
     <g id="line2d_15">
      <path d="M 665.074687 355.552308 
L 665.074687 14.4 
" clip-path="url(#peaae9c5576)" style="fill: none; stroke-dasharray: 2.96,1.28; stroke-dashoffset: 0; stroke: #b0b0b0; stroke-opacity: 0.3; stroke-width: 0.8"/>
     </g>
     <g id="line2d_16">
      <g>
       <use xlink:href="#m96b41b559b" x="665.074687" y="355.552308" style="stroke: #000000; stroke-width: 0.8"/>
      </g>
     </g>
     <g id="text_8">
      <!-- 2025-12-24 -->
      <g transform="translate(625.736349 405.564288) rotate(-45) scale(0.1 -0.1)">
       <defs>
        <path id="WenQuanYiZenHei-34" d="M 3631 1025 
L 2913 1025 
L 2913 0 
L 2381 0 
L 2381 1025 
L 219 1025 
L 219 1388 
L 2225 4388 
L 2913 4388 
L 2913 1444 
L 3631 1444 
L 3631 1025 
z
M 2381 1444 
L 2381 3963 
L 788 1444 
L 2381 1444 
z
" transform="scale(0.015625)"/>
       </defs>
       <use xlink:href="#WenQuanYiZenHei-32"/>
       <use xlink:href="#WenQuanYiZenHei-30" x="59.960938"/>
       <use xlink:href="#WenQuanYiZenHei-32" x="119.921875"/>
       <use xlink:href="#WenQuanYiZenHei-35" x="179.882812"/>
       <use xlink:href="#WenQuanYiZenHei-2d" x="239.84375"/>
       <use xlink:href="#WenQuanYiZenHei-31" x="269.824219"/>
       <use xlink:href="#WenQuanYiZenHei-32" x="329.785156"/>
       <use xlink:href="#WenQuanYiZenHei-2d" x="389.746094"/>
       <use xlink:href="#WenQuanYiZenHei-32" x="419.726562"/>
       <use xlink:href="#WenQuanYiZenHei-34" x="479.6875"/>
      </g>
     </g>
    </g>
   </g>
   <g id="matplotlib.axis_2">
    <g id="ytick_1">
     <g id="line2d_17">
      <path d="M 52.439063 321.437078 
L 694.247812 321.437078 
" clip-path="url(#peaae9c5576)" style="fill: none; stroke-dasharray: 2.96,1.28; stroke-dashoffset: 0; stroke: #b0b0b0; stroke-opacity: 0.3; stroke-width: 0.8"/>
     </g>
     <g id="line2d_18">
      <defs>
       <path id="meb06f7310d" d="M 0 0 
L -3.5 0 
" style="stroke: #000000; stroke-width: 0.8"/>
      </defs>
      <g>
       <use xlink:href="#meb06f7310d" x="52.439063" y="321.437078" style="stroke: #000000; stroke-width: 0.8"/>
      </g>
     </g>
     <g id="text_9">
      <!-- 0.6 -->
      <g transform="translate(30.446875 324.865203) scale(0.1 -0.1)">
       <defs>
        <path id="WenQuanYiZenHei-2e" d="M 1344 0 
L 631 0 
L 631 725 
L 1344 725 
L 1344 0 
z
" transform="scale(0.015625)"/>
        <path id="WenQuanYiZenHei-36" d="M 3550 1431 
Q 3550 725 3006 288 
Q 2581 -63 1994 -63 
Q 1013 -63 563 825 
Q 288 1363 288 2081 
Q 288 3294 856 3938 
Q 1319 4456 2075 4456 
Q 2969 4456 3363 3756 
Q 3431 3631 3481 3481 
L 2988 3350 
Q 2750 3994 2075 4006 
Q 1056 4006 844 2669 
Q 794 2356 794 1981 
L 806 1981 
Q 1006 2506 1544 2744 
Q 1819 2869 2119 2869 
Q 2788 2869 3213 2375 
Q 3550 1975 3550 1431 
z
M 3038 1406 
Q 3038 1906 2656 2213 
Q 2381 2431 2038 2431 
Q 1525 2431 1181 2044 
Q 919 1744 919 1356 
Q 919 881 1344 581 
Q 1631 375 1981 375 
Q 2519 375 2838 781 
Q 3038 1050 3038 1406 
z
" transform="scale(0.015625)"/>
       </defs>
       <use xlink:href="#WenQuanYiZenHei-30"/>
       <use xlink:href="#WenQuanYiZenHei-2e" x="59.960938"/>
       <use xlink:href="#WenQuanYiZenHei-36" x="89.941406"/>
      </g>
     </g>
    </g>
    <g id="ytick_2">
     <g id="line2d_19">
      <path d="M 52.439063 253.206616 
L 694.247812 253.206616 
" clip-path="url(#peaae9c5576)" style="fill: none; stroke-dasharray: 2.96,1.28; stroke-dashoffset: 0; stroke: #b0b0b0; stroke-opacity: 0.3; stroke-width: 0.8"/>
     </g>
     <g id="line2d_20">
      <g>
       <use xlink:href="#meb06f7310d" x="52.439063" y="253.206616" style="stroke: #000000; stroke-width: 0.8"/>
      </g>
     </g>
     <g id="text_10">
      <!-- 0.8 -->
      <g transform="translate(30.446875 256.634741) scale(0.1 -0.1)">
       <use xlink:href="#WenQuanYiZenHei-30"/>
       <use xlink:href="#WenQuanYiZenHei-2e" x="59.960938"/>
       <use xlink:href="#WenQuanYiZenHei-38" x="89.941406"/>
      </g>
     </g>
    </g>
    <g id="ytick_3">
     <g id="line2d_21">
      <path d="M 52.439063 184.976154 
L 694.247812 184.976154 
" clip-path="url(#peaae9c5576)" style="fill: none; stroke-dasharray: 2.96,1.28; stroke-dashoffset: 0; stroke: #b0b0b0; stroke-opacity: 0.3; stroke-width: 0.8"/>
     </g>
     <g id="line2d_22">
      <g>
       <use xlink:href="#meb06f7310d" x="52.439063" y="184.976154" style="stroke: #000000; stroke-width: 0.8"/>
      </g>
     </g>
     <g id="text_11">
      <!-- 1.0 -->
      <g transform="translate(30.446875 188.404279) scale(0.1 -0.1)">
       <use xlink:href="#WenQuanYiZenHei-31"/>
       <use xlink:href="#WenQuanYiZenHei-2e" x="59.960938"/>
       <use xlink:href="#WenQuanYiZenHei-30" x="89.941406"/>
      </g>
     </g>
    </g>
    <g id="ytick_4">
     <g id="line2d_23">
      <path d="M 52.439063 116.745693 
L 694.247812 116.745693 
" clip-path="url(#peaae9c5576)" style="fill: none; stroke-dasharray: 2.96,1.28; stroke-dashoffset: 0; stroke: #b0b0b0; stroke-opacity: 0.3; stroke-width: 0.8"/>
     </g>
     <g id="line2d_24">
      <g>
       <use xlink:href="#meb06f7310d" x="52.439063" y="116.745693" style="stroke: #000000; stroke-width: 0.8"/>
      </g>
     </g>
     <g id="text_12">
      <!-- 1.2 -->
      <g transform="translate(30.446875 120.173818) scale(0.1 -0.1)">
       <use xlink:href="#WenQuanYiZenHei-31"/>
       <use xlink:href="#WenQuanYiZenHei-2e" x="59.960938"/>
       <use xlink:href="#WenQuanYiZenHei-32" x="89.941406"/>
      </g>
     </g>
    </g>
    <g id="ytick_5">
     <g id="line2d_25">
      <path d="M 52.439063 48.515231 
L 694.247812 48.515231 
" clip-path="url(#peaae9c5576)" style="fill: none; stroke-dasharray: 2.96,1.28; stroke-dashoffset: 0; stroke: #b0b0b0; stroke-opacity: 0.3; stroke-width: 0.8"/>
     </g>
     <g id="line2d_26">
      <g>
       <use xlink:href="#meb06f7310d" x="52.439063" y="48.515231" style="stroke: #000000; stroke-width: 0.8"/>
      </g>
     </g>
     <g id="text_13">
      <!-- 1.4 -->
      <g transform="translate(30.446875 51.943356) scale(0.1 -0.1)">
       <use xlink:href="#WenQuanYiZenHei-31"/>
       <use xlink:href="#WenQuanYiZenHei-2e" x="59.960938"/>
       <use xlink:href="#WenQuanYiZenHei-34" x="89.941406"/>
      </g>
     </g>
    </g>
    <g id="text_14">
     <!-- 体重 (比值) -->
     <g transform="translate(24.395625 214.373342) rotate(-90) scale(0.12 -0.12)">
      <defs>
       <path id="WenQuanYiZenHei-4f53" d="M 5175 838 
L 5188 625 
Q 4838 644 4488 644 
L 3994 644 
L 3994 138 
Q 3994 -319 4013 -769 
Q 3769 -744 3525 -769 
Q 3544 -319 3544 138 
L 3544 644 
L 3225 644 
Q 2875 644 2531 625 
Q 2544 763 2538 869 
Q 2281 513 1975 213 
Q 1806 431 1538 513 
Q 2519 1431 2863 2381 
Q 3056 2938 3194 3531 
L 2663 3531 
Q 2313 3531 1963 3519 
Q 1981 3706 1963 3894 
Q 2313 3881 2663 3881 
L 3544 3881 
L 3544 4225 
Q 3544 4675 3525 5125 
Q 3769 5100 4013 5125 
Q 3994 4675 3994 4225 
L 3994 3881 
L 5269 3881 
Q 5619 3881 5969 3894 
Q 5950 3706 5969 3519 
Q 5619 3531 5269 3531 
L 4463 3531 
Q 4531 2606 4956 1875 
Q 5438 1100 6206 531 
Q 5944 469 5788 250 
Q 5456 506 5175 838 
z
M 3994 3531 
L 3994 988 
L 5044 1000 
Q 4800 1313 4606 1681 
Q 4119 2594 4056 3531 
L 3994 3531 
z
M 2631 1000 
L 3544 988 
L 3544 2975 
Q 3431 2575 3215 2056 
Q 3000 1538 2631 1000 
z
M 1956 4925 
Q 1719 4075 1350 3338 
L 1350 31 
Q 1350 -413 1369 -850 
Q 1163 -825 950 -850 
Q 969 -413 969 31 
L 969 2681 
Q 694 2269 350 1931 
Q 225 2156 0 2256 
Q 306 2544 569 2875 
Q 1013 3425 1206 3950 
Q 1381 4469 1506 5050 
Q 1713 4963 1956 4925 
z
" transform="scale(0.015625)"/>
       <path id="WenQuanYiZenHei-91cd" d="M 6131 -56 
Q 6119 -231 6131 -406 
Q 5813 -388 5488 -388 
L 763 -388 
Q 438 -388 119 -406 
Q 131 -231 119 -56 
Q 438 -69 763 -69 
L 2919 -69 
L 2919 481 
L 1369 481 
Q 1044 481 725 469 
Q 744 644 725 819 
Q 1044 800 1369 800 
L 2919 800 
L 2919 1313 
L 1013 1313 
Q 1088 2331 1013 3350 
L 2919 3350 
L 2919 3788 
L 813 3788 
Q 488 3788 163 3769 
Q 181 3944 163 4119 
Q 488 4106 813 4106 
L 2919 4106 
L 2919 4731 
Q 1775 4663 731 4581 
L 494 5006 
L 1175 5000 
Q 1475 5006 1928 5025 
Q 2381 5044 3103 5100 
Q 3825 5156 4419 5218 
Q 5013 5281 5356 5331 
Q 5344 5075 5381 4831 
Q 4600 4825 3356 4756 
L 3356 4106 
L 5438 4106 
Q 5763 4106 6088 4119 
Q 6069 3944 6088 3769 
Q 5763 3788 5438 3788 
L 3356 3788 
L 3356 3350 
L 5275 3350 
Q 5200 2331 5275 1313 
L 3356 1313 
L 3356 800 
L 4881 800 
Q 5206 800 5525 819 
Q 5506 644 5525 469 
Q 5206 481 4881 481 
L 3356 481 
L 3356 -69 
L 5488 -69 
Q 5813 -69 6131 -56 
z
M 3356 2488 
L 4844 2488 
L 4844 3031 
L 3356 3031 
L 3356 2488 
z
M 2919 2488 
L 2919 3031 
L 1444 3031 
L 1444 2488 
L 2919 2488 
z
M 3356 2169 
L 3356 1631 
L 4838 1631 
L 4844 2169 
L 3356 2169 
z
M 2919 2169 
L 1444 2169 
L 1444 1631 
L 2919 1631 
L 2919 2169 
z
" transform="scale(0.015625)"/>
       <path id="WenQuanYiZenHei-20" transform="scale(0.015625)"/>
       <path id="WenQuanYiZenHei-28" d="M 1606 -1094 
L 1275 -1094 
Q 475 -100 338 1231 
Q 319 1438 319 1656 
Q 319 3031 1156 4244 
Q 1213 4313 1269 4388 
L 1600 4388 
Q 806 3169 794 1681 
Q 794 188 1606 -1094 
z
" transform="scale(0.015625)"/>
       <path id="WenQuanYiZenHei-6bd4" d="M 3738 350 
Q 3738 225 3800 137 
Q 3863 50 3963 50 
L 5288 50 
Q 5406 56 5438 169 
Q 5475 275 5488 406 
L 5606 1244 
Q 5813 1106 6056 1106 
L 5863 -113 
Q 5838 -256 5750 -350 
Q 5706 -381 5644 -381 
L 3956 -381 
Q 3656 -381 3462 -181 
Q 3269 19 3269 350 
L 3269 4313 
Q 3269 4788 3250 5256 
Q 3500 5231 3756 5256 
Q 3738 4788 3738 4313 
L 3738 2625 
Q 4206 2869 4581 3187 
Q 4956 3506 5363 3963 
Q 5544 3781 5756 3638 
Q 5013 2713 3738 2113 
L 3738 350 
z
M 2875 3088 
Q 2850 2869 2875 2650 
Q 2475 2675 2075 2675 
L 1075 2675 
L 1075 6 
L 2756 1331 
L 2950 975 
Q 2763 850 2581 706 
L 794 -825 
L 519 -450 
Q 613 -200 613 63 
L 613 4188 
Q 613 4663 588 5138 
Q 844 5106 1100 5138 
Q 1075 4663 1075 4188 
L 1075 3069 
L 2075 3069 
Q 2475 3069 2875 3088 
z
" transform="scale(0.015625)"/>
       <path id="WenQuanYiZenHei-503c" d="M 6175 -219 
Q 6156 -388 6175 -556 
Q 5863 -544 5550 -544 
L 2313 -544 
Q 2000 -544 1688 -556 
Q 1706 -388 1688 -219 
L 2506 -231 
L 2506 3469 
L 3644 3469 
L 3644 4119 
L 2638 4119 
Q 2325 4119 2013 4100 
Q 2031 4269 2013 4438 
Q 2325 4425 2638 4425 
L 3638 4425 
Q 3638 4719 3619 5013 
Q 3856 4988 4094 5013 
Q 4075 4719 4075 4425 
L 5344 4425 
Q 5650 4425 5963 4438 
Q 5950 4269 5963 4100 
Q 5656 4119 5344 4119 
L 4069 4119 
L 4069 3469 
L 5300 3469 
L 5300 -231 
L 5550 -231 
Q 5863 -231 6175 -219 
z
M 4869 2556 
L 4869 3156 
L 2931 3156 
Q 2931 2850 2931 2556 
L 4869 2556 
z
M 4869 1669 
L 4869 2250 
L 2931 2250 
L 2931 1669 
L 4869 1669 
z
M 4869 731 
L 4869 1363 
L 2931 1363 
L 2931 731 
L 4869 731 
z
M 4869 -231 
L 4869 425 
L 2931 425 
L 2931 -231 
L 4869 -231 
z
M 2106 4925 
Q 1856 4075 1463 3338 
L 1463 31 
Q 1463 -413 1481 -850 
Q 1256 -825 1031 -850 
Q 1050 -413 1050 31 
L 1050 2681 
Q 750 2269 375 1931 
Q 238 2156 0 2256 
Q 331 2544 619 2875 
Q 1094 3425 1300 3950 
Q 1494 4469 1625 5050 
Q 1850 4963 2106 4925 
z
" transform="scale(0.015625)"/>
       <path id="WenQuanYiZenHei-29" d="M 1600 1656 
Q 1600 306 869 -788 
Q 769 -950 644 -1094 
L 313 -1094 
Q 1125 188 1125 1681 
Q 1125 3169 338 4363 
Q 325 4375 319 4388 
L 650 4388 
Q 1525 3231 1594 1863 
Q 1600 1763 1600 1656 
z
" transform="scale(0.015625)"/>
      </defs>
      <use xlink:href="#WenQuanYiZenHei-4f53"/>
      <use xlink:href="#WenQuanYiZenHei-91cd" x="100"/>
      <use xlink:href="#WenQuanYiZenHei-20" x="200"/>
      <use xlink:href="#WenQuanYiZenHei-28" x="229.980469"/>
      <use xlink:href="#WenQuanYiZenHei-6bd4" x="259.960938"/>
      <use xlink:href="#WenQuanYiZenHei-503c" x="359.960938"/>
      <use xlink:href="#WenQuanYiZenHei-29" x="459.960938"/>
     </g>
    </g>
   </g>
   <g id="line2d_27">
    <path d="M 81.612188 184.976154 
L 164.963973 182.277164 
L 248.315759 178.214475 
L 331.667545 182.6465 
L 415.01933 194.692517 
L 498.371116 208.556802 
L 581.722902 215.290071 
L 665.074687 214.920736 
" clip-path="url(#peaae9c5576)" style="fill: none; stroke: #1f77b4; stroke-opacity: 0.8; stroke-width: 2; stroke-linecap: square"/>
    <defs>
     <path id="m4f21723689" d="M 0 3 
C 0.795609 3 1.55874 2.683901 2.12132 2.12132 
C 2.683901 1.55874 3 0.795609 3 0 
C 3 -0.795609 2.683901 -1.55874 2.12132 -2.12132 
C 1.55874 -2.683901 0.795609 -3 0 -3 
C -0.795609 -3 -1.55874 -2.683901 -2.12132 -2.12132 
C -2.683901 -1.55874 -3 -0.795609 -3 0 
C -3 0.795609 -2.683901 1.55874 -2.12132 2.12132 
C -1.55874 2.683901 -0.795609 3 0 3 
z
" style="stroke: #1f77b4; stroke-opacity: 0.8"/>
    </defs>
    <g clip-path="url(#peaae9c5576)">
     <use xlink:href="#m4f21723689" x="81.612188" y="184.976154" style="fill: #1f77b4; fill-opacity: 0.8; stroke: #1f77b4; stroke-opacity: 0.8"/>
     <use xlink:href="#m4f21723689" x="164.963973" y="182.277164" style="fill: #1f77b4; fill-opacity: 0.8; stroke: #1f77b4; stroke-opacity: 0.8"/>
     <use xlink:href="#m4f21723689" x="248.315759" y="178.214475" style="fill: #1f77b4; fill-opacity: 0.8; stroke: #1f77b4; stroke-opacity: 0.8"/>
     <use xlink:href="#m4f21723689" x="331.667545" y="182.6465" style="fill: #1f77b4; fill-opacity: 0.8; stroke: #1f77b4; stroke-opacity: 0.8"/>
     <use xlink:href="#m4f21723689" x="415.01933" y="194.692517" style="fill: #1f77b4; fill-opacity: 0.8; stroke: #1f77b4; stroke-opacity: 0.8"/>
     <use xlink:href="#m4f21723689" x="498.371116" y="208.556802" style="fill: #1f77b4; fill-opacity: 0.8; stroke: #1f77b4; stroke-opacity: 0.8"/>
     <use xlink:href="#m4f21723689" x="581.722902" y="215.290071" style="fill: #1f77b4; fill-opacity: 0.8; stroke: #1f77b4; stroke-opacity: 0.8"/>
     <use xlink:href="#m4f21723689" x="665.074687" y="214.920736" style="fill: #1f77b4; fill-opacity: 0.8; stroke: #1f77b4; stroke-opacity: 0.8"/>
    </g>
   </g>
   <g id="line2d_28">
    <path d="M 81.612188 184.976154 
L 164.963973 189.656119 
L 248.315759 187.9154 
L 331.667545 187.430282 
L 415.01933 192.024638 
L 498.371116 202.126513 
L 581.722902 201.213349 
L 665.074687 194.99242 
" clip-path="url(#peaae9c5576)" style="fill: none; stroke: #ff7f0e; stroke-opacity: 0.8; stroke-width: 2; stroke-linecap: square"/>
    <defs>
     <path id="m736660ce2f" d="M 0 3 
C 0.795609 3 1.55874 2.683901 2.12132 2.12132 
C 2.683901 1.55874 3 0.795609 3 0 
C 3 -0.795609 2.683901 -1.55874 2.12132 -2.12132 
C 1.55874 -2.683901 0.795609 -3 0 -3 
C -0.795609 -3 -1.55874 -2.683901 -2.12132 -2.12132 
C -2.683901 -1.55874 -3 -0.795609 -3 0 
C -3 0.795609 -2.683901 1.55874 -2.12132 2.12132 
C -1.55874 2.683901 -0.795609 3 0 3 
z
" style="stroke: #ff7f0e; stroke-opacity: 0.8"/>
    </defs>
    <g clip-path="url(#peaae9c5576)">
     <use xlink:href="#m736660ce2f" x="81.612188" y="184.976154" style="fill: #ff7f0e; fill-opacity: 0.8; stroke: #ff7f0e; stroke-opacity: 0.8"/>
     <use xlink:href="#m736660ce2f" x="164.963973" y="189.656119" style="fill: #ff7f0e; fill-opacity: 0.8; stroke: #ff7f0e; stroke-opacity: 0.8"/>
     <use xlink:href="#m736660ce2f" x="248.315759" y="187.9154" style="fill: #ff7f0e; fill-opacity: 0.8; stroke: #ff7f0e; stroke-opacity: 0.8"/>
     <use xlink:href="#m736660ce2f" x="331.667545" y="187.430282" style="fill: #ff7f0e; fill-opacity: 0.8; stroke: #ff7f0e; stroke-opacity: 0.8"/>
     <use xlink:href="#m736660ce2f" x="415.01933" y="192.024638" style="fill: #ff7f0e; fill-opacity: 0.8; stroke: #ff7f0e; stroke-opacity: 0.8"/>
     <use xlink:href="#m736660ce2f" x="498.371116" y="202.126513" style="fill: #ff7f0e; fill-opacity: 0.8; stroke: #ff7f0e; stroke-opacity: 0.8"/>
     <use xlink:href="#m736660ce2f" x="581.722902" y="201.213349" style="fill: #ff7f0e; fill-opacity: 0.8; stroke: #ff7f0e; stroke-opacity: 0.8"/>
     <use xlink:href="#m736660ce2f" x="665.074687" y="194.99242" style="fill: #ff7f0e; fill-opacity: 0.8; stroke: #ff7f0e; stroke-opacity: 0.8"/>
    </g>
   </g>
   <g id="line2d_29">
    <path d="M 81.612188 184.976154 
L 164.963973 177.693192 
L 248.315759 178.324 
L 331.667545 176.74698 
L 415.01933 182.596289 
L 498.371116 196.474059 
L 581.722902 216.258485 
L 665.074687 224.344293 
" clip-path="url(#peaae9c5576)" style="fill: none; stroke: #2ca02c; stroke-opacity: 0.8; stroke-width: 2; stroke-linecap: square"/>
    <defs>
     <path id="m942111dca7" d="M 0 3 
C 0.795609 3 1.55874 2.683901 2.12132 2.12132 
C 2.683901 1.55874 3 0.795609 3 0 
C 3 -0.795609 2.683901 -1.55874 2.12132 -2.12132 
C 1.55874 -2.683901 0.795609 -3 0 -3 
C -0.795609 -3 -1.55874 -2.683901 -2.12132 -2.12132 
C -2.683901 -1.55874 -3 -0.795609 -3 0 
C -3 0.795609 -2.683901 1.55874 -2.12132 2.12132 
C -1.55874 2.683901 -0.795609 3 0 3 
z
" style="stroke: #2ca02c; stroke-opacity: 0.8"/>
    </defs>
    <g clip-path="url(#peaae9c5576)">
     <use xlink:href="#m942111dca7" x="81.612188" y="184.976154" style="fill: #2ca02c; fill-opacity: 0.8; stroke: #2ca02c; stroke-opacity: 0.8"/>
     <use xlink:href="#m942111dca7" x="164.963973" y="177.693192" style="fill: #2ca02c; fill-opacity: 0.8; stroke: #2ca02c; stroke-opacity: 0.8"/>
     <use xlink:href="#m942111dca7" x="248.315759" y="178.324" style="fill: #2ca02c; fill-opacity: 0.8; stroke: #2ca02c; stroke-opacity: 0.8"/>
     <use xlink:href="#m942111dca7" x="331.667545" y="176.74698" style="fill: #2ca02c; fill-opacity: 0.8; stroke: #2ca02c; stroke-opacity: 0.8"/>
     <use xlink:href="#m942111dca7" x="415.01933" y="182.596289" style="fill: #2ca02c; fill-opacity: 0.8; stroke: #2ca02c; stroke-opacity: 0.8"/>
     <use xlink:href="#m942111dca7" x="498.371116" y="196.474059" style="fill: #2ca02c; fill-opacity: 0.8; stroke: #2ca02c; stroke-opacity: 0.8"/>
     <use xlink:href="#m942111dca7" x="581.722902" y="216.258485" style="fill: #2ca02c; fill-opacity: 0.8; stroke: #2ca02c; stroke-opacity: 0.8"/>
     <use xlink:href="#m942111dca7" x="665.074687" y="224.344293" style="fill: #2ca02c; fill-opacity: 0.8; stroke: #2ca02c; stroke-opacity: 0.8"/>
    </g>
   </g>
   <g id="line2d_30">
    <path d="M 81.612188 184.976154 
L 164.963973 167.688324 
L 248.315759 167.427703 
L 331.667545 170.786813 
L 415.01933 174.145922 
L 498.371116 194.590157 
L 581.722902 217.408935 
L 665.074687 215.613549 
" clip-path="url(#peaae9c5576)" style="fill: none; stroke: #d62728; stroke-opacity: 0.8; stroke-width: 2; stroke-linecap: square"/>
    <defs>
     <path id="m07f634a981" d="M 0 3 
C 0.795609 3 1.55874 2.683901 2.12132 2.12132 
C 2.683901 1.55874 3 0.795609 3 0 
C 3 -0.795609 2.683901 -1.55874 2.12132 -2.12132 
C 1.55874 -2.683901 0.795609 -3 0 -3 
C -0.795609 -3 -1.55874 -2.683901 -2.12132 -2.12132 
C -2.683901 -1.55874 -3 -0.795609 -3 0 
C -3 0.795609 -2.683901 1.55874 -2.12132 2.12132 
C -1.55874 2.683901 -0.795609 3 0 3 
z
" style="stroke: #d62728; stroke-opacity: 0.8"/>
    </defs>
    <g clip-path="url(#peaae9c5576)">
     <use xlink:href="#m07f634a981" x="81.612188" y="184.976154" style="fill: #d62728; fill-opacity: 0.8; stroke: #d62728; stroke-opacity: 0.8"/>
     <use xlink:href="#m07f634a981" x="164.963973" y="167.688324" style="fill: #d62728; fill-opacity: 0.8; stroke: #d62728; stroke-opacity: 0.8"/>
     <use xlink:href="#m07f634a981" x="248.315759" y="167.427703" style="fill: #d62728; fill-opacity: 0.8; stroke: #d62728; stroke-opacity: 0.8"/>
     <use xlink:href="#m07f634a981" x="331.667545" y="170.786813" style="fill: #d62728; fill-opacity: 0.8; stroke: #d62728; stroke-opacity: 0.8"/>
     <use xlink:href="#m07f634a981" x="415.01933" y="174.145922" style="fill: #d62728; fill-opacity: 0.8; stroke: #d62728; stroke-opacity: 0.8"/>
     <use xlink:href="#m07f634a981" x="498.371116" y="194.590157" style="fill: #d62728; fill-opacity: 0.8; stroke: #d62728; stroke-opacity: 0.8"/>
     <use xlink:href="#m07f634a981" x="581.722902" y="217.408935" style="fill: #d62728; fill-opacity: 0.8; stroke: #d62728; stroke-opacity: 0.8"/>
     <use xlink:href="#m07f634a981" x="665.074687" y="215.613549" style="fill: #d62728; fill-opacity: 0.8; stroke: #d62728; stroke-opacity: 0.8"/>
    </g>
   </g>
   <g id="line2d_31">
    <path d="M 81.612188 184.976154 
L 164.963973 178.50628 
L 248.315759 174.380993 
L 331.667545 175.627483 
L 415.01933 167.495623 
L 498.371116 170.938308 
L 581.722902 165.833637 
L 665.074687 167.169161 
" clip-path="url(#peaae9c5576)" style="fill: none; stroke: #9467bd; stroke-opacity: 0.8; stroke-width: 2; stroke-linecap: square"/>
    <defs>
     <path id="m2557e9adb4" d="M 0 3 
C 0.795609 3 1.55874 2.683901 2.12132 2.12132 
C 2.683901 1.55874 3 0.795609 3 0 
C 3 -0.795609 2.683901 -1.55874 2.12132 -2.12132 
C 1.55874 -2.683901 0.795609 -3 0 -3 
C -0.795609 -3 -1.55874 -2.683901 -2.12132 -2.12132 
C -2.683901 -1.55874 -3 -0.795609 -3 0 
C -3 0.795609 -2.683901 1.55874 -2.12132 2.12132 
C -1.55874 2.683901 -0.795609 3 0 3 
z
" style="stroke: #9467bd; stroke-opacity: 0.8"/>
    </defs>
    <g clip-path="url(#peaae9c5576)">
     <use xlink:href="#m2557e9adb4" x="81.612188" y="184.976154" style="fill: #9467bd; fill-opacity: 0.8; stroke: #9467bd; stroke-opacity: 0.8"/>
     <use xlink:href="#m2557e9adb4" x="164.963973" y="178.50628" style="fill: #9467bd; fill-opacity: 0.8; stroke: #9467bd; stroke-opacity: 0.8"/>
     <use xlink:href="#m2557e9adb4" x="248.315759" y="174.380993" style="fill: #9467bd; fill-opacity: 0.8; stroke: #9467bd; stroke-opacity: 0.8"/>
     <use xlink:href="#m2557e9adb4" x="331.667545" y="175.627483" style="fill: #9467bd; fill-opacity: 0.8; stroke: #9467bd; stroke-opacity: 0.8"/>
     <use xlink:href="#m2557e9adb4" x="415.01933" y="167.495623" style="fill: #9467bd; fill-opacity: 0.8; stroke: #9467bd; stroke-opacity: 0.8"/>
     <use xlink:href="#m2557e9adb4" x="498.371116" y="170.938308" style="fill: #9467bd; fill-opacity: 0.8; stroke: #9467bd; stroke-opacity: 0.8"/>
     <use xlink:href="#m2557e9adb4" x="581.722902" y="165.833637" style="fill: #9467bd; fill-opacity: 0.8; stroke: #9467bd; stroke-opacity: 0.8"/>
     <use xlink:href="#m2557e9adb4" x="665.074687" y="167.169161" style="fill: #9467bd; fill-opacity: 0.8; stroke: #9467bd; stroke-opacity: 0.8"/>
    </g>
   </g>
   <g id="line2d_32">
    <path d="M 81.612188 184.976154 
L 164.963973 171.020845 
L 248.315759 170.325974 
L 331.667545 174.408337 
L 415.01933 192.330197 
L 498.371116 213.639549 
L 581.722902 233.559161 
L 665.074687 239.58137 
" clip-path="url(#peaae9c5576)" style="fill: none; stroke: #8c564b; stroke-opacity: 0.8; stroke-width: 2; stroke-linecap: square"/>
    <defs>
     <path id="ma252fda00b" d="M 0 3 
C 0.795609 3 1.55874 2.683901 2.12132 2.12132 
C 2.683901 1.55874 3 0.795609 3 0 
C 3 -0.795609 2.683901 -1.55874 2.12132 -2.12132 
C 1.55874 -2.683901 0.795609 -3 0 -3 
C -0.795609 -3 -1.55874 -2.683901 -2.12132 -2.12132 
C -2.683901 -1.55874 -3 -0.795609 -3 0 
C -3 0.795609 -2.683901 1.55874 -2.12132 2.12132 
C -1.55874 2.683901 -0.795609 3 0 3 
z
" style="stroke: #8c564b; stroke-opacity: 0.8"/>
    </defs>
    <g clip-path="url(#peaae9c5576)">
     <use xlink:href="#ma252fda00b" x="81.612188" y="184.976154" style="fill: #8c564b; fill-opacity: 0.8; stroke: #8c564b; stroke-opacity: 0.8"/>
     <use xlink:href="#ma252fda00b" x="164.963973" y="171.020845" style="fill: #8c564b; fill-opacity: 0.8; stroke: #8c564b; stroke-opacity: 0.8"/>
     <use xlink:href="#ma252fda00b" x="248.315759" y="170.325974" style="fill: #8c564b; fill-opacity: 0.8; stroke: #8c564b; stroke-opacity: 0.8"/>
     <use xlink:href="#ma252fda00b" x="331.667545" y="174.408337" style="fill: #8c564b; fill-opacity: 0.8; stroke: #8c564b; stroke-opacity: 0.8"/>
     <use xlink:href="#ma252fda00b" x="415.01933" y="192.330197" style="fill: #8c564b; fill-opacity: 0.8; stroke: #8c564b; stroke-opacity: 0.8"/>
     <use xlink:href="#ma252fda00b" x="498.371116" y="213.639549" style="fill: #8c564b; fill-opacity: 0.8; stroke: #8c564b; stroke-opacity: 0.8"/>
     <use xlink:href="#ma252fda00b" x="581.722902" y="233.559161" style="fill: #8c564b; fill-opacity: 0.8; stroke: #8c564b; stroke-opacity: 0.8"/>
     <use xlink:href="#ma252fda00b" x="665.074687" y="239.58137" style="fill: #8c564b; fill-opacity: 0.8; stroke: #8c564b; stroke-opacity: 0.8"/>
    </g>
   </g>
   <g id="patch_3">
    <path d="M 52.439063 355.552308 
L 52.439063 14.4 
" style="fill: none; stroke: #000000; stroke-width: 0.8; stroke-linejoin: miter; stroke-linecap: square"/>
   </g>
   <g id="patch_4">
    <path d="M 694.247812 355.552308 
L 694.247812 14.4 
" style="fill: none; stroke: #000000; stroke-width: 0.8; stroke-linejoin: miter; stroke-linecap: square"/>
   </g>
   <g id="patch_5">
    <path d="M 52.439063 355.552308 
L 694.247812 355.552308 
" style="fill: none; stroke: #000000; stroke-width: 0.8; stroke-linejoin: miter; stroke-linecap: square"/>
   </g>
   <g id="patch_6">
    <path d="M 52.439063 14.4 
L 694.247812 14.4 
" style="fill: none; stroke: #000000; stroke-width: 0.8; stroke-linejoin: miter; stroke-linecap: square"/>
   </g>
   <g id="legend_1">
    <g id="line2d_33">
     <path d="M 590.916562 26.9 
L 600.916562 26.9 
L 610.916562 26.9 
" style="fill: none; stroke: #1f77b4; stroke-opacity: 0.8; stroke-width: 2; stroke-linecap: square"/>
     <g>
      <use xlink:href="#m4f21723689" x="600.916562" y="26.9" style="fill: #1f77b4; fill-opacity: 0.8; stroke: #1f77b4; stroke-opacity: 0.8"/>
     </g>
    </g>
    <g id="text_15">
     <!-- 100mpk 5-asa -->
     <g transform="translate(618.916562 30.4) scale(0.1 -0.1)">
      <defs>
       <path id="WenQuanYiZenHei-6d" d="M 4813 0 
L 4313 0 
L 4313 2069 
Q 4313 2763 3881 2900 
Q 3788 2925 3681 2925 
Q 3313 2925 3050 2563 
Q 2881 2306 2875 1863 
L 2875 1756 
L 2875 0 
L 2375 0 
L 2375 2063 
Q 2375 2750 1931 2894 
Q 1838 2925 1719 2925 
Q 1413 2925 1163 2644 
Q 1144 2625 1131 2606 
Q 938 2356 938 1863 
L 938 0 
L 438 0 
L 438 3250 
L 888 3250 
L 888 2625 
L 900 2625 
Q 1100 3100 1531 3269 
Q 1694 3338 1875 3338 
Q 2394 3338 2663 2888 
Q 2750 2738 2788 2563 
Q 3013 3119 3506 3281 
Q 3669 3338 3838 3338 
Q 4263 3338 4556 3006 
L 4656 2869 
Q 4813 2606 4813 2050 
L 4813 0 
z
" transform="scale(0.015625)"/>
       <path id="WenQuanYiZenHei-70" d="M 3256 1650 
Q 3256 838 2856 350 
Q 2513 -63 1969 -63 
Q 1344 -63 1000 513 
L 1000 -1063 
L 500 -1063 
L 500 3250 
L 956 3250 
L 956 2625 
L 969 2625 
Q 1169 3163 1688 3294 
Q 1825 3338 1969 3338 
Q 2713 3338 3056 2600 
Q 3256 2175 3256 1650 
z
M 2694 1631 
Q 2694 2419 2319 2731 
L 2181 2825 
Q 2038 2894 1856 2894 
Q 1419 2894 1150 2463 
Q 1106 2400 1075 2325 
Q 1000 2169 1000 2100 
L 1000 1275 
Q 1000 875 1319 581 
Q 1563 356 1856 356 
Q 2525 356 2669 1238 
Q 2694 1419 2694 1631 
z
" transform="scale(0.015625)"/>
       <path id="WenQuanYiZenHei-6b" d="M 3150 0 
L 2619 0 
L 1669 1813 
L 975 1006 
L 975 0 
L 475 0 
L 475 4388 
L 975 4388 
L 975 1581 
L 2475 3238 
L 3013 3238 
L 2006 2100 
L 3150 0 
z
" transform="scale(0.015625)"/>
       <path id="WenQuanYiZenHei-61" d="M 3181 0 
L 2681 0 
L 2625 606 
Q 2294 -63 1488 -63 
Q 856 -63 544 331 
Q 350 575 350 919 
Q 350 1400 763 1706 
Q 850 1781 956 1825 
Q 1375 2025 2344 2019 
L 2625 2019 
L 2625 2156 
Q 2625 2756 2200 2894 
L 1975 2938 
Q 1894 2944 1800 2944 
Q 1025 2944 906 2369 
L 444 2444 
Q 525 3075 1281 3263 
Q 1544 3338 1844 3338 
Q 2675 3338 2931 2894 
Q 3113 2594 3113 1944 
L 3113 688 
Q 3113 244 3181 0 
z
M 2625 1425 
L 2625 1638 
L 2206 1638 
Q 888 1638 888 894 
Q 888 488 1319 363 
Q 1444 325 1594 325 
Q 2125 325 2425 769 
Q 2625 1063 2625 1425 
z
" transform="scale(0.015625)"/>
       <path id="WenQuanYiZenHei-73" d="M 3031 944 
Q 3031 294 2350 44 
Q 2050 -63 1681 -63 
Q 863 -63 475 425 
Q 319 613 256 863 
L 744 963 
Q 806 544 1344 406 
Q 1531 350 1719 350 
Q 2250 350 2438 631 
Q 2506 744 2506 888 
Q 2506 1206 2081 1331 
L 1638 1425 
Q 988 1544 750 1688 
Q 388 1919 388 2381 
Q 388 2975 994 3219 
Q 1269 3338 1606 3338 
Q 2463 3338 2781 2781 
Q 2856 2663 2894 2513 
L 2431 2419 
Q 2275 2869 1725 2925 
Q 1663 2931 1600 2931 
Q 1150 2931 981 2688 
Q 906 2594 906 2456 
Q 906 2138 1356 2013 
Q 1413 1988 2038 1881 
Q 2456 1806 2644 1675 
Q 3031 1413 3031 944 
z
" transform="scale(0.015625)"/>
      </defs>
      <use xlink:href="#WenQuanYiZenHei-31"/>
      <use xlink:href="#WenQuanYiZenHei-30" x="59.960938"/>
      <use xlink:href="#WenQuanYiZenHei-30" x="119.921875"/>
      <use xlink:href="#WenQuanYiZenHei-6d" x="179.882812"/>
      <use xlink:href="#WenQuanYiZenHei-70" x="261.816406"/>
      <use xlink:href="#WenQuanYiZenHei-6b" x="315.722656"/>
      <use xlink:href="#WenQuanYiZenHei-20" x="365.722656"/>
      <use xlink:href="#WenQuanYiZenHei-35" x="395.703125"/>
      <use xlink:href="#WenQuanYiZenHei-2d" x="455.664062"/>
      <use xlink:href="#WenQuanYiZenHei-61" x="485.644531"/>
      <use xlink:href="#WenQuanYiZenHei-73" x="539.550781"/>
      <use xlink:href="#WenQuanYiZenHei-61" x="591.503906"/>
     </g>
    </g>
    <g id="line2d_34">
     <path d="M 590.916562 40.560937 
L 600.916562 40.560937 
L 610.916562 40.560937 
" style="fill: none; stroke: #ff7f0e; stroke-opacity: 0.8; stroke-width: 2; stroke-linecap: square"/>
     <g>
      <use xlink:href="#m736660ce2f" x="600.916562" y="40.560937" style="fill: #ff7f0e; fill-opacity: 0.8; stroke: #ff7f0e; stroke-opacity: 0.8"/>
     </g>
    </g>
    <g id="text_16">
     <!-- 100mpk sh bid -->
     <g transform="translate(618.916562 44.060937) scale(0.1 -0.1)">
      <defs>
       <path id="WenQuanYiZenHei-68" d="M 3006 0 
L 2506 0 
L 2506 1894 
Q 2506 2538 2313 2750 
L 2206 2844 
L 2063 2900 
Q 1969 2925 1856 2925 
Q 1488 2925 1194 2581 
Q 956 2231 950 1669 
L 950 0 
L 450 0 
L 450 4388 
L 950 4388 
L 950 2650 
L 969 2650 
Q 1288 3338 1975 3338 
Q 2706 3338 2931 2650 
Q 3006 2413 3006 2119 
L 3006 0 
z
" transform="scale(0.015625)"/>
       <path id="WenQuanYiZenHei-62" d="M 3181 1669 
Q 3181 850 2756 356 
Q 2400 -63 1825 -63 
Q 1306 -63 956 363 
Q 881 456 825 556 
L 638 0 
L 394 0 
L 394 4388 
L 894 4388 
L 894 2713 
L 919 2713 
Q 1250 3338 1875 3338 
Q 2625 3338 2975 2619 
Q 3181 2194 3181 1669 
z
M 2644 1588 
Q 2644 2388 2281 2738 
L 2150 2838 
Q 1988 2931 1788 2931 
Q 1363 2931 1081 2525 
Q 894 2250 894 1938 
L 894 1363 
Q 894 831 1244 538 
Q 1463 338 1788 338 
Q 2375 338 2575 1031 
Q 2644 1288 2644 1588 
z
" transform="scale(0.015625)"/>
       <path id="WenQuanYiZenHei-69" d="M 1044 3825 
L 494 3825 
L 494 4388 
L 1044 4388 
L 1044 3825 
z
M 1019 0 
L 519 0 
L 519 3250 
L 1019 3250 
L 1019 0 
z
" transform="scale(0.015625)"/>
       <path id="WenQuanYiZenHei-64" d="M 3025 0 
L 2575 0 
L 2575 575 
L 2563 575 
Q 2244 -63 1544 -63 
Q 806 -63 456 663 
Q 244 1094 244 1625 
Q 244 2425 663 2919 
Q 1025 3338 1588 3338 
Q 2156 3338 2525 2813 
L 2525 4388 
L 3025 4388 
L 3025 0 
z
M 2525 1406 
L 2525 1925 
Q 2525 2550 2119 2813 
Q 1913 2938 1631 2938 
Q 1075 2938 869 2275 
Q 781 1994 781 1681 
Q 781 775 1213 475 
Q 1381 350 1619 350 
Q 2119 350 2381 819 
Q 2525 1088 2525 1406 
z
" transform="scale(0.015625)"/>
      </defs>
      <use xlink:href="#WenQuanYiZenHei-31"/>
      <use xlink:href="#WenQuanYiZenHei-30" x="59.960938"/>
      <use xlink:href="#WenQuanYiZenHei-30" x="119.921875"/>
      <use xlink:href="#WenQuanYiZenHei-6d" x="179.882812"/>
      <use xlink:href="#WenQuanYiZenHei-70" x="261.816406"/>
      <use xlink:href="#WenQuanYiZenHei-6b" x="315.722656"/>
      <use xlink:href="#WenQuanYiZenHei-20" x="365.722656"/>
      <use xlink:href="#WenQuanYiZenHei-73" x="395.703125"/>
      <use xlink:href="#WenQuanYiZenHei-68" x="447.65625"/>
      <use xlink:href="#WenQuanYiZenHei-20" x="501.5625"/>
      <use xlink:href="#WenQuanYiZenHei-62" x="531.542969"/>
      <use xlink:href="#WenQuanYiZenHei-69" x="585.449219"/>
      <use xlink:href="#WenQuanYiZenHei-64" x="609.375"/>
     </g>
    </g>
    <g id="line2d_35">
     <path d="M 590.916562 54.221875 
L 600.916562 54.221875 
L 610.916562 54.221875 
" style="fill: none; stroke: #2ca02c; stroke-opacity: 0.8; stroke-width: 2; stroke-linecap: square"/>
     <g>
      <use xlink:href="#m942111dca7" x="600.916562" y="54.221875" style="fill: #2ca02c; fill-opacity: 0.8; stroke: #2ca02c; stroke-opacity: 0.8"/>
     </g>
    </g>
    <g id="text_17">
     <!-- 50mpk 5-2 bid -->
     <g transform="translate(618.916562 57.721875) scale(0.1 -0.1)">
      <use xlink:href="#WenQuanYiZenHei-35"/>
      <use xlink:href="#WenQuanYiZenHei-30" x="59.960938"/>
      <use xlink:href="#WenQuanYiZenHei-6d" x="119.921875"/>
      <use xlink:href="#WenQuanYiZenHei-70" x="201.855469"/>
      <use xlink:href="#WenQuanYiZenHei-6b" x="255.761719"/>
      <use xlink:href="#WenQuanYiZenHei-20" x="305.761719"/>
      <use xlink:href="#WenQuanYiZenHei-35" x="335.742188"/>
      <use xlink:href="#WenQuanYiZenHei-2d" x="395.703125"/>
      <use xlink:href="#WenQuanYiZenHei-32" x="425.683594"/>
      <use xlink:href="#WenQuanYiZenHei-20" x="485.644531"/>
      <use xlink:href="#WenQuanYiZenHei-62" x="515.625"/>
      <use xlink:href="#WenQuanYiZenHei-69" x="569.53125"/>
      <use xlink:href="#WenQuanYiZenHei-64" x="593.457031"/>
     </g>
    </g>
    <g id="line2d_36">
     <path d="M 590.916562 67.882812 
L 600.916562 67.882812 
L 610.916562 67.882812 
" style="fill: none; stroke: #d62728; stroke-opacity: 0.8; stroke-width: 2; stroke-linecap: square"/>
     <g>
      <use xlink:href="#m07f634a981" x="600.916562" y="67.882812" style="fill: #d62728; fill-opacity: 0.8; stroke: #d62728; stroke-opacity: 0.8"/>
     </g>
    </g>
    <g id="text_18">
     <!-- 50mpk sh bid -->
     <g transform="translate(618.916562 71.382812) scale(0.1 -0.1)">
      <use xlink:href="#WenQuanYiZenHei-35"/>
      <use xlink:href="#WenQuanYiZenHei-30" x="59.960938"/>
      <use xlink:href="#WenQuanYiZenHei-6d" x="119.921875"/>
      <use xlink:href="#WenQuanYiZenHei-70" x="201.855469"/>
      <use xlink:href="#WenQuanYiZenHei-6b" x="255.761719"/>
      <use xlink:href="#WenQuanYiZenHei-20" x="305.761719"/>
      <use xlink:href="#WenQuanYiZenHei-73" x="335.742188"/>
      <use xlink:href="#WenQuanYiZenHei-68" x="387.695312"/>
      <use xlink:href="#WenQuanYiZenHei-20" x="441.601562"/>
      <use xlink:href="#WenQuanYiZenHei-62" x="471.582031"/>
      <use xlink:href="#WenQuanYiZenHei-69" x="525.488281"/>
      <use xlink:href="#WenQuanYiZenHei-64" x="549.414062"/>
     </g>
    </g>
    <g id="line2d_37">
     <path d="M 590.916562 81.54375 
L 600.916562 81.54375 
L 610.916562 81.54375 
" style="fill: none; stroke: #9467bd; stroke-opacity: 0.8; stroke-width: 2; stroke-linecap: square"/>
     <g>
      <use xlink:href="#m2557e9adb4" x="600.916562" y="81.54375" style="fill: #9467bd; fill-opacity: 0.8; stroke: #9467bd; stroke-opacity: 0.8"/>
     </g>
    </g>
    <g id="text_19">
     <!-- con -->
     <g transform="translate(618.916562 85.04375) scale(0.1 -0.1)">
      <defs>
       <path id="WenQuanYiZenHei-63" d="M 2856 1075 
Q 2725 350 2181 69 
Q 1919 -63 1600 -63 
Q 788 -63 425 675 
Q 219 1088 219 1625 
Q 219 2456 663 2938 
Q 1031 3338 1606 3338 
Q 2369 3338 2700 2694 
Q 2813 2475 2856 2206 
L 2394 2125 
Q 2344 2631 1969 2831 
Q 1856 2894 1706 2906 
Q 1663 2913 1619 2913 
Q 1019 2913 819 2206 
Q 750 1950 750 1656 
Q 750 863 1119 531 
Q 1313 363 1588 363 
Q 2194 363 2375 1069 
Q 2388 1113 2394 1156 
L 2856 1075 
z
" transform="scale(0.015625)"/>
       <path id="WenQuanYiZenHei-6f" d="M 3175 1644 
Q 3175 813 2681 331 
Q 2281 -63 1663 -63 
Q 856 -63 481 656 
Q 256 1088 256 1650 
Q 256 2494 763 2969 
Q 1150 3338 1750 3338 
Q 2525 3338 2919 2656 
Q 3175 2219 3175 1644 
z
M 2619 1650 
Q 2619 2481 2181 2788 
Q 1981 2925 1706 2925 
Q 1069 2925 875 2188 
Q 813 1938 813 1650 
Q 813 750 1288 463 
Q 1463 350 1706 350 
Q 2400 350 2575 1169 
Q 2619 1394 2619 1650 
z
" transform="scale(0.015625)"/>
       <path id="WenQuanYiZenHei-6e" d="M 3013 0 
L 2513 0 
L 2513 2013 
Q 2513 2425 2444 2575 
Q 2438 2594 2425 2613 
Q 2288 2856 1956 2900 
Q 1913 2906 1869 2906 
Q 1263 2906 1038 2288 
Q 944 2019 944 1700 
L 944 0 
L 444 0 
L 444 3250 
L 913 3250 
L 913 2650 
L 925 2650 
Q 1156 3150 1644 3288 
Q 1788 3338 1938 3338 
Q 2544 3338 2844 2856 
L 2863 2831 
Q 3013 2569 3013 1931 
L 3013 0 
z
" transform="scale(0.015625)"/>
      </defs>
      <use xlink:href="#WenQuanYiZenHei-63"/>
      <use xlink:href="#WenQuanYiZenHei-6f" x="47.949219"/>
      <use xlink:href="#WenQuanYiZenHei-6e" x="101.855469"/>
     </g>
    </g>
    <g id="line2d_38">
     <path d="M 590.916562 95.204687 
L 600.916562 95.204687 
L 610.916562 95.204687 
" style="fill: none; stroke: #8c564b; stroke-opacity: 0.8; stroke-width: 2; stroke-linecap: square"/>
     <g>
      <use xlink:href="#ma252fda00b" x="600.916562" y="95.204687" style="fill: #8c564b; fill-opacity: 0.8; stroke: #8c564b; stroke-opacity: 0.8"/>
     </g>
    </g>
    <g id="text_20">
     <!-- dss -->
     <g transform="translate(618.916562 98.704687) scale(0.1 -0.1)">
      <use xlink:href="#WenQuanYiZenHei-64"/>
      <use xlink:href="#WenQuanYiZenHei-73" x="53.90625"/>
      <use xlink:href="#WenQuanYiZenHei-73" x="105.859375"/>
     </g>
    </g>
   </g>
  </g>
 </g>
 <defs>
  <clipPath id="peaae9c5576">
   <rect x="52.439063" y="14.4" width="641.80875" height="341.152308"/>
  </clipPath>
 </defs>
</svg>
