<?xml version="1.0" encoding="utf-8" standalone="no"?>
<!DOCTYPE svg PUBLIC "-//W3C//DTD SVG 1.1//EN"
  "http://www.w3.org/Graphics/SVG/1.1/DTD/svg11.dtd">
<svg xmlns:xlink="http://www.w3.org/1999/xlink" width="708.967187pt" height="421.202388pt" viewBox="0 0 708.967187 421.202388" xmlns="http://www.w3.org/2000/svg" version="1.1">
 <metadata>
  <rdf:RDF xmlns:dc="http://purl.org/dc/elements/1.1/" xmlns:cc="http://creativecommons.org/ns#" xmlns:rdf="http://www.w3.org/1999/02/22-rdf-syntax-ns#">
   <cc:Work>
    <dc:type rdf:resource="http://purl.org/dc/dcmitype/StillImage"/>
    <dc:date>2025-12-25T06:30:46.556391</dc:date>
    <dc:format>image/svg+xml</dc:format>
    <dc:creator>
     <cc:Agent>
      <dc:title>Matplotlib v3.7.2, https://matplotlib.org/</dc:title>
     </cc:Agent>
    </dc:creator>
   </cc:Work>
  </rdf:RDF>
 </metadata>
 <defs>
  <style type="text/css">*{stroke-linejoin: round; stroke-linecap: butt}</style>
 </defs>
 <g id="figure_1">
  <g id="patch_1">
   <path d="M 0 421.202388 
L 708.967187 421.202388 
L 708.967187 0 
L 0 0 
z
" style="fill: #ffffff"/>
  </g>
  <g id="axes_1">
   <g id="patch_2">
    <path d="M 57.978438 355.615948 
L 694.567188 355.615948 
L 694.567188 14.4 
L 57.978438 14.4 
z
" style="fill: #ffffff"/>
   </g>
   <g id="matplotlib.axis_1">
    <g id="xtick_1">
     <g id="line2d_1">
      <path d="M 376.272812 355.615948 
L 376.272812 14.4 
" clip-path="url(#p0cea3dfd7a)" style="fill: none; stroke-dasharray: 2.96,1.28; stroke-dashoffset: 0; stroke: #b0b0b0; stroke-opacity: 0.3; stroke-width: 0.8"/>
     </g>
     <g id="line2d_2">
      <defs>
       <path id="mf96b6289c6" d="M 0 0 
L 0 3.5 
" style="stroke: #000000; stroke-width: 0.8"/>
      </defs>
      <g>
       <use xlink:href="#mf96b6289c6" x="376.272812" y="355.615948" style="stroke: #000000; stroke-width: 0.8"/>
      </g>
     </g>
     <g id="text_1">
      <!-- 2025-01-16 -->
      <g transform="translate(336.934474 405.627928) rotate(-45) scale(0.1 -0.1)">
       <defs>
        <path id="WenQuanYiZenHei-32" d="M 3488 0 
L 369 0 
L 369 456 
L 2150 1850 
Q 2931 2463 2931 3144 
Q 2931 3619 2488 3863 
Q 2231 4013 1931 4013 
Q 1425 4013 1113 3619 
Q 894 3356 881 3013 
L 369 3169 
Q 531 3981 1213 4300 
Q 1544 4456 1950 4456 
Q 2631 4456 3088 4044 
L 3225 3888 
L 3350 3706 
Q 3481 3444 3481 3144 
Q 3481 2313 2519 1569 
L 1069 456 
L 3488 456 
L 3488 0 
z
" transform="scale(0.015625)"/>
        <path id="WenQuanYiZenHei-30" d="M 3581 2175 
Q 3581 1288 3169 638 
Q 2713 -63 1938 -63 
Q 1025 -63 563 831 
Q 256 1425 256 2188 
Q 256 3188 700 3819 
Q 1138 4456 1888 4456 
Q 2863 4456 3306 3500 
Q 3581 2925 3581 2175 
z
M 3019 2100 
Q 3019 3356 2500 3806 
L 2350 3919 
Q 2144 4031 1888 4031 
Q 1100 4031 888 2956 
Q 819 2625 819 2225 
Q 819 1013 1338 569 
Q 1588 356 1938 356 
Q 2675 356 2925 1294 
Q 3019 1663 3019 2100 
z
" transform="scale(0.015625)"/>
        <path id="WenQuanYiZenHei-35" d="M 3531 1488 
Q 3531 688 2913 250 
Q 2456 -63 1844 -63 
Q 1175 -63 706 350 
Q 413 613 306 975 
L 781 1131 
Q 1000 538 1569 406 
Q 1706 369 1856 369 
Q 2550 369 2850 869 
Q 3000 1131 3000 1494 
Q 3000 2056 2581 2356 
Q 2319 2538 1969 2538 
Q 1400 2538 1031 2075 
Q 981 2013 938 1938 
L 500 2031 
L 644 4388 
L 3244 4388 
L 3200 3919 
L 1044 3919 
L 950 2500 
Q 1431 2975 2006 2975 
Q 2713 2975 3163 2475 
Q 3531 2063 3531 1488 
z
" transform="scale(0.015625)"/>
        <path id="WenQuanYiZenHei-2d" d="M 1363 1444 
L 0 1444 
L 0 1844 
L 1363 1844 
L 1363 1444 
z
" transform="scale(0.015625)"/>
        <path id="WenQuanYiZenHei-31" d="M 3556 0 
L 488 0 
L 488 406 
L 1800 406 
L 1800 3725 
Q 1231 3125 588 2788 
L 588 3338 
Q 1456 3781 1931 4388 
L 2331 4388 
L 2331 406 
L 3556 406 
L 3556 0 
z
" transform="scale(0.015625)"/>
        <path id="WenQuanYiZenHei-36" d="M 3550 1431 
Q 3550 725 3006 288 
Q 2581 -63 1994 -63 
Q 1013 -63 563 825 
Q 288 1363 288 2081 
Q 288 3294 856 3938 
Q 1319 4456 2075 4456 
Q 2969 4456 3363 3756 
Q 3431 3631 3481 3481 
L 2988 3350 
Q 2750 3994 2075 4006 
Q 1056 4006 844 2669 
Q 794 2356 794 1981 
L 806 1981 
Q 1006 2506 1544 2744 
Q 1819 2869 2119 2869 
Q 2788 2869 3213 2375 
Q 3550 1975 3550 1431 
z
M 3038 1406 
Q 3038 1906 2656 2213 
Q 2381 2431 2038 2431 
Q 1525 2431 1181 2044 
Q 919 1744 919 1356 
Q 919 881 1344 581 
Q 1631 375 1981 375 
Q 2519 375 2838 781 
Q 3038 1050 3038 1406 
z
" transform="scale(0.015625)"/>
       </defs>
       <use xlink:href="#WenQuanYiZenHei-32"/>
       <use xlink:href="#WenQuanYiZenHei-30" x="59.960938"/>
       <use xlink:href="#WenQuanYiZenHei-32" x="119.921875"/>
       <use xlink:href="#WenQuanYiZenHei-35" x="179.882812"/>
       <use xlink:href="#WenQuanYiZenHei-2d" x="239.84375"/>
       <use xlink:href="#WenQuanYiZenHei-30" x="269.824219"/>
       <use xlink:href="#WenQuanYiZenHei-31" x="329.785156"/>
       <use xlink:href="#WenQuanYiZenHei-2d" x="389.746094"/>
       <use xlink:href="#WenQuanYiZenHei-31" x="419.726562"/>
       <use xlink:href="#WenQuanYiZenHei-36" x="479.6875"/>
      </g>
     </g>
    </g>
   </g>
   <g id="matplotlib.axis_2">
    <g id="ytick_1">
     <g id="line2d_3">
      <path d="M 57.978438 355.615948 
L 694.567188 355.615948 
" clip-path="url(#p0cea3dfd7a)" style="fill: none; stroke-dasharray: 2.96,1.28; stroke-dashoffset: 0; stroke: #b0b0b0; stroke-opacity: 0.3; stroke-width: 0.8"/>
     </g>
     <g id="line2d_4">
      <defs>
       <path id="mef1a8ec228" d="M 0 0 
L -3.5 0 
" style="stroke: #000000; stroke-width: 0.8"/>
      </defs>
      <g>
       <use xlink:href="#mef1a8ec228" x="57.978438" y="355.615948" style="stroke: #000000; stroke-width: 0.8"/>
      </g>
     </g>
     <g id="text_2">
      <!-- 17.8 -->
      <g transform="translate(29.989375 359.044073) scale(0.1 -0.1)">
       <defs>
        <path id="WenQuanYiZenHei-37" d="M 3400 4056 
Q 1838 2175 1838 0 
L 1275 0 
Q 1269 1438 2056 2825 
Q 2381 3400 2825 3913 
L 444 3913 
L 500 4388 
L 3400 4388 
L 3400 4056 
z
" transform="scale(0.015625)"/>
        <path id="WenQuanYiZenHei-2e" d="M 1344 0 
L 631 0 
L 631 725 
L 1344 725 
L 1344 0 
z
" transform="scale(0.015625)"/>
        <path id="WenQuanYiZenHei-38" d="M 3619 1175 
Q 3619 431 2850 100 
Q 2444 -63 1944 -63 
Q 1231 -63 725 269 
Q 225 594 225 1125 
Q 225 1881 1269 2281 
Q 719 2481 519 2938 
Q 444 3119 444 3319 
Q 444 4000 1144 4294 
Q 1519 4456 1963 4456 
Q 2669 4456 3094 4094 
Q 3425 3813 3425 3369 
Q 3425 2638 2575 2356 
Q 3231 2056 3450 1725 
Q 3619 1488 3619 1175 
z
M 2944 3344 
Q 2944 3906 2288 4019 
Q 2138 4044 1969 4044 
Q 1438 4044 1163 3775 
Q 1000 3613 1000 3375 
Q 1000 2925 1594 2663 
Q 1756 2588 1931 2550 
Q 2581 2725 2788 2956 
Q 2944 3125 2944 3344 
z
M 3075 1094 
Q 3075 1738 1875 2050 
Q 1094 1881 850 1463 
Q 763 1313 763 1131 
Q 763 569 1456 406 
Q 1681 344 1944 344 
Q 2519 344 2850 619 
Q 3075 813 3075 1094 
z
" transform="scale(0.015625)"/>
       </defs>
       <use xlink:href="#WenQuanYiZenHei-31"/>
       <use xlink:href="#WenQuanYiZenHei-37" x="59.960938"/>
       <use xlink:href="#WenQuanYiZenHei-2e" x="119.921875"/>
       <use xlink:href="#WenQuanYiZenHei-38" x="149.902344"/>
      </g>
     </g>
    </g>
    <g id="ytick_2">
     <g id="line2d_5">
      <path d="M 57.978438 307.701245 
L 694.567188 307.701245 
" clip-path="url(#p0cea3dfd7a)" style="fill: none; stroke-dasharray: 2.96,1.28; stroke-dashoffset: 0; stroke: #b0b0b0; stroke-opacity: 0.3; stroke-width: 0.8"/>
     </g>
     <g id="line2d_6">
      <g>
       <use xlink:href="#mef1a8ec228" x="57.978438" y="307.701245" style="stroke: #000000; stroke-width: 0.8"/>
      </g>
     </g>
     <g id="text_3">
      <!-- 18.0 -->
      <g transform="translate(29.989375 311.12937) scale(0.1 -0.1)">
       <use xlink:href="#WenQuanYiZenHei-31"/>
       <use xlink:href="#WenQuanYiZenHei-38" x="59.960938"/>
       <use xlink:href="#WenQuanYiZenHei-2e" x="119.921875"/>
       <use xlink:href="#WenQuanYiZenHei-30" x="149.902344"/>
      </g>
     </g>
    </g>
    <g id="ytick_3">
     <g id="line2d_7">
      <path d="M 57.978438 259.786542 
L 694.567188 259.786542 
" clip-path="url(#p0cea3dfd7a)" style="fill: none; stroke-dasharray: 2.96,1.28; stroke-dashoffset: 0; stroke: #b0b0b0; stroke-opacity: 0.3; stroke-width: 0.8"/>
     </g>
     <g id="line2d_8">
      <g>
       <use xlink:href="#mef1a8ec228" x="57.978438" y="259.786542" style="stroke: #000000; stroke-width: 0.8"/>
      </g>
     </g>
     <g id="text_4">
      <!-- 18.2 -->
      <g transform="translate(29.989375 263.214667) scale(0.1 -0.1)">
       <use xlink:href="#WenQuanYiZenHei-31"/>
       <use xlink:href="#WenQuanYiZenHei-38" x="59.960938"/>
       <use xlink:href="#WenQuanYiZenHei-2e" x="119.921875"/>
       <use xlink:href="#WenQuanYiZenHei-32" x="149.902344"/>
      </g>
     </g>
    </g>
    <g id="ytick_4">
     <g id="line2d_9">
      <path d="M 57.978438 211.87184 
L 694.567188 211.87184 
" clip-path="url(#p0cea3dfd7a)" style="fill: none; stroke-dasharray: 2.96,1.28; stroke-dashoffset: 0; stroke: #b0b0b0; stroke-opacity: 0.3; stroke-width: 0.8"/>
     </g>
     <g id="line2d_10">
      <g>
       <use xlink:href="#mef1a8ec228" x="57.978438" y="211.87184" style="stroke: #000000; stroke-width: 0.8"/>
      </g>
     </g>
     <g id="text_5">
      <!-- 18.4 -->
      <g transform="translate(29.989375 215.299965) scale(0.1 -0.1)">
       <defs>
        <path id="WenQuanYiZenHei-34" d="M 3631 1025 
L 2913 1025 
L 2913 0 
L 2381 0 
L 2381 1025 
L 219 1025 
L 219 1388 
L 2225 4388 
L 2913 4388 
L 2913 1444 
L 3631 1444 
L 3631 1025 
z
M 2381 1444 
L 2381 3963 
L 788 1444 
L 2381 1444 
z
" transform="scale(0.015625)"/>
       </defs>
       <use xlink:href="#WenQuanYiZenHei-31"/>
       <use xlink:href="#WenQuanYiZenHei-38" x="59.960938"/>
       <use xlink:href="#WenQuanYiZenHei-2e" x="119.921875"/>
       <use xlink:href="#WenQuanYiZenHei-34" x="149.902344"/>
      </g>
     </g>
    </g>
    <g id="ytick_5">
     <g id="line2d_11">
      <path d="M 57.978438 163.957137 
L 694.567188 163.957137 
" clip-path="url(#p0cea3dfd7a)" style="fill: none; stroke-dasharray: 2.96,1.28; stroke-dashoffset: 0; stroke: #b0b0b0; stroke-opacity: 0.3; stroke-width: 0.8"/>
     </g>
     <g id="line2d_12">
      <g>
       <use xlink:href="#mef1a8ec228" x="57.978438" y="163.957137" style="stroke: #000000; stroke-width: 0.8"/>
      </g>
     </g>
     <g id="text_6">
      <!-- 18.6 -->
      <g transform="translate(29.989375 167.385262) scale(0.1 -0.1)">
       <use xlink:href="#WenQuanYiZenHei-31"/>
       <use xlink:href="#WenQuanYiZenHei-38" x="59.960938"/>
       <use xlink:href="#WenQuanYiZenHei-2e" x="119.921875"/>
       <use xlink:href="#WenQuanYiZenHei-36" x="149.902344"/>
      </g>
     </g>
    </g>
    <g id="ytick_6">
     <g id="line2d_13">
      <path d="M 57.978438 116.042434 
L 694.567188 116.042434 
" clip-path="url(#p0cea3dfd7a)" style="fill: none; stroke-dasharray: 2.96,1.28; stroke-dashoffset: 0; stroke: #b0b0b0; stroke-opacity: 0.3; stroke-width: 0.8"/>
     </g>
     <g id="line2d_14">
      <g>
       <use xlink:href="#mef1a8ec228" x="57.978438" y="116.042434" style="stroke: #000000; stroke-width: 0.8"/>
      </g>
     </g>
     <g id="text_7">
      <!-- 18.8 -->
      <g transform="translate(29.989375 119.470559) scale(0.1 -0.1)">
       <use xlink:href="#WenQuanYiZenHei-31"/>
       <use xlink:href="#WenQuanYiZenHei-38" x="59.960938"/>
       <use xlink:href="#WenQuanYiZenHei-2e" x="119.921875"/>
       <use xlink:href="#WenQuanYiZenHei-38" x="149.902344"/>
      </g>
     </g>
    </g>
    <g id="ytick_7">
     <g id="line2d_15">
      <path d="M 57.978438 68.127731 
L 694.567188 68.127731 
" clip-path="url(#p0cea3dfd7a)" style="fill: none; stroke-dasharray: 2.96,1.28; stroke-dashoffset: 0; stroke: #b0b0b0; stroke-opacity: 0.3; stroke-width: 0.8"/>
     </g>
     <g id="line2d_16">
      <g>
       <use xlink:href="#mef1a8ec228" x="57.978438" y="68.127731" style="stroke: #000000; stroke-width: 0.8"/>
      </g>
     </g>
     <g id="text_8">
      <!-- 19.0 -->
      <g transform="translate(29.989375 71.555856) scale(0.1 -0.1)">
       <defs>
        <path id="WenQuanYiZenHei-39" d="M 3544 2300 
Q 3544 1163 3019 513 
Q 2563 -63 1775 -63 
Q 956 -63 563 488 
Q 463 631 394 813 
L 838 975 
Q 1025 494 1550 388 
Q 1656 369 1775 369 
Q 2594 369 2900 1325 
Q 3044 1769 3038 2313 
L 3025 2313 
Q 2675 1638 1944 1544 
Q 1844 1531 1744 1531 
Q 1050 1531 625 2031 
Q 294 2419 294 2963 
Q 294 3656 813 4094 
Q 1238 4456 1819 4456 
Q 2988 4456 3381 3363 
Q 3544 2900 3544 2300 
z
M 2925 2994 
Q 2925 3563 2469 3844 
Q 2206 4006 1863 4006 
Q 1275 4006 988 3563 
Q 844 3344 825 3056 
Q 819 3006 819 2956 
Q 819 2413 1269 2131 
Q 1538 1963 1875 1963 
Q 2363 1963 2681 2350 
Q 2925 2638 2925 2994 
z
" transform="scale(0.015625)"/>
       </defs>
       <use xlink:href="#WenQuanYiZenHei-31"/>
       <use xlink:href="#WenQuanYiZenHei-39" x="59.960938"/>
       <use xlink:href="#WenQuanYiZenHei-2e" x="119.921875"/>
       <use xlink:href="#WenQuanYiZenHei-30" x="149.902344"/>
      </g>
     </g>
    </g>
    <g id="ytick_8">
     <g id="line2d_17">
      <path d="M 57.978438 20.213028 
L 694.567188 20.213028 
" clip-path="url(#p0cea3dfd7a)" style="fill: none; stroke-dasharray: 2.96,1.28; stroke-dashoffset: 0; stroke: #b0b0b0; stroke-opacity: 0.3; stroke-width: 0.8"/>
     </g>
     <g id="line2d_18">
      <g>
       <use xlink:href="#mef1a8ec228" x="57.978438" y="20.213028" style="stroke: #000000; stroke-width: 0.8"/>
      </g>
     </g>
     <g id="text_9">
      <!-- 19.2 -->
      <g transform="translate(29.989375 23.641153) scale(0.1 -0.1)">
       <use xlink:href="#WenQuanYiZenHei-31"/>
       <use xlink:href="#WenQuanYiZenHei-39" x="59.960938"/>
       <use xlink:href="#WenQuanYiZenHei-2e" x="119.921875"/>
       <use xlink:href="#WenQuanYiZenHei-32" x="149.902344"/>
      </g>
     </g>
    </g>
    <g id="text_10">
     <!-- 体重 -->
     <g transform="translate(23.99625 197.007974) rotate(-90) scale(0.12 -0.12)">
      <defs>
       <path id="WenQuanYiZenHei-4f53" d="M 5175 838 
L 5188 625 
Q 4838 644 4488 644 
L 3994 644 
L 3994 138 
Q 3994 -319 4013 -769 
Q 3769 -744 3525 -769 
Q 3544 -319 3544 138 
L 3544 644 
L 3225 644 
Q 2875 644 2531 625 
Q 2544 763 2538 869 
Q 2281 513 1975 213 
Q 1806 431 1538 513 
Q 2519 1431 2863 2381 
Q 3056 2938 3194 3531 
L 2663 3531 
Q 2313 3531 1963 3519 
Q 1981 3706 1963 3894 
Q 2313 3881 2663 3881 
L 3544 3881 
L 3544 4225 
Q 3544 4675 3525 5125 
Q 3769 5100 4013 5125 
Q 3994 4675 3994 4225 
L 3994 3881 
L 5269 3881 
Q 5619 3881 5969 3894 
Q 5950 3706 5969 3519 
Q 5619 3531 5269 3531 
L 4463 3531 
Q 4531 2606 4956 1875 
Q 5438 1100 6206 531 
Q 5944 469 5788 250 
Q 5456 506 5175 838 
z
M 3994 3531 
L 3994 988 
L 5044 1000 
Q 4800 1313 4606 1681 
Q 4119 2594 4056 3531 
L 3994 3531 
z
M 2631 1000 
L 3544 988 
L 3544 2975 
Q 3431 2575 3215 2056 
Q 3000 1538 2631 1000 
z
M 1956 4925 
Q 1719 4075 1350 3338 
L 1350 31 
Q 1350 -413 1369 -850 
Q 1163 -825 950 -850 
Q 969 -413 969 31 
L 969 2681 
Q 694 2269 350 1931 
Q 225 2156 0 2256 
Q 306 2544 569 2875 
Q 1013 3425 1206 3950 
Q 1381 4469 1506 5050 
Q 1713 4963 1956 4925 
z
" transform="scale(0.015625)"/>
       <path id="WenQuanYiZenHei-91cd" d="M 6131 -56 
Q 6119 -231 6131 -406 
Q 5813 -388 5488 -388 
L 763 -388 
Q 438 -388 119 -406 
Q 131 -231 119 -56 
Q 438 -69 763 -69 
L 2919 -69 
L 2919 481 
L 1369 481 
Q 1044 481 725 469 
Q 744 644 725 819 
Q 1044 800 1369 800 
L 2919 800 
L 2919 1313 
L 1013 1313 
Q 1088 2331 1013 3350 
L 2919 3350 
L 2919 3788 
L 813 3788 
Q 488 3788 163 3769 
Q 181 3944 163 4119 
Q 488 4106 813 4106 
L 2919 4106 
L 2919 4731 
Q 1775 4663 731 4581 
L 494 5006 
L 1175 5000 
Q 1475 5006 1928 5025 
Q 2381 5044 3103 5100 
Q 3825 5156 4419 5218 
Q 5013 5281 5356 5331 
Q 5344 5075 5381 4831 
Q 4600 4825 3356 4756 
L 3356 4106 
L 5438 4106 
Q 5763 4106 6088 4119 
Q 6069 3944 6088 3769 
Q 5763 3788 5438 3788 
L 3356 3788 
L 3356 3350 
L 5275 3350 
Q 5200 2331 5275 1313 
L 3356 1313 
L 3356 800 
L 4881 800 
Q 5206 800 5525 819 
Q 5506 644 5525 469 
Q 5206 481 4881 481 
L 3356 481 
L 3356 -69 
L 5488 -69 
Q 5813 -69 6131 -56 
z
M 3356 2488 
L 4844 2488 
L 4844 3031 
L 3356 3031 
L 3356 2488 
z
M 2919 2488 
L 2919 3031 
L 1444 3031 
L 1444 2488 
L 2919 2488 
z
M 3356 2169 
L 3356 1631 
L 4838 1631 
L 4844 2169 
L 3356 2169 
z
M 2919 2169 
L 1444 2169 
L 1444 1631 
L 2919 1631 
L 2919 2169 
z
" transform="scale(0.015625)"/>
      </defs>
      <use xlink:href="#WenQuanYiZenHei-4f53"/>
      <use xlink:href="#WenQuanYiZenHei-91cd" x="100"/>
     </g>
    </g>
   </g>
   <g id="LineCollection_1">
    <path d="M 376.272812 355.615948 
L 376.272812 355.615948 
" clip-path="url(#p0cea3dfd7a)" style="fill: none; stroke: #1f77b4; stroke-opacity: 0.8; stroke-width: 2"/>
   </g>
   <g id="line2d_19">
    <defs>
     <path id="m52537935c3" d="M 5 0 
L -5 -0 
" style="stroke: #1f77b4; stroke-opacity: 0.8; stroke-width: 1.5"/>
    </defs>
    <g clip-path="url(#p0cea3dfd7a)">
     <use xlink:href="#m52537935c3" x="376.272812" y="355.615948" style="fill: #1f77b4; fill-opacity: 0.8; stroke: #1f77b4; stroke-opacity: 0.8; stroke-width: 1.5"/>
    </g>
   </g>
   <g id="line2d_20">
    <g clip-path="url(#p0cea3dfd7a)">
     <use xlink:href="#m52537935c3" x="376.272812" y="355.615948" style="fill: #1f77b4; fill-opacity: 0.8; stroke: #1f77b4; stroke-opacity: 0.8; stroke-width: 1.5"/>
    </g>
   </g>
   <g id="LineCollection_2">
    <path d="M 376.272812 217.684868 
L 376.272812 14.4 
" clip-path="url(#p0cea3dfd7a)" style="fill: none; stroke: #ff7f0e; stroke-opacity: 0.8; stroke-width: 2"/>
   </g>
   <g id="line2d_21">
    <defs>
     <path id="m7a306b336a" d="M 5 0 
L -5 -0 
" style="stroke: #ff7f0e; stroke-opacity: 0.8; stroke-width: 1.5"/>
    </defs>
    <g clip-path="url(#p0cea3dfd7a)">
     <use xlink:href="#m7a306b336a" x="376.272812" y="217.684868" style="fill: #ff7f0e; fill-opacity: 0.8; stroke: #ff7f0e; stroke-opacity: 0.8; stroke-width: 1.5"/>
    </g>
   </g>
   <g id="line2d_22">
    <g clip-path="url(#p0cea3dfd7a)">
     <use xlink:href="#m7a306b336a" x="376.272812" y="14.4" style="fill: #ff7f0e; fill-opacity: 0.8; stroke: #ff7f0e; stroke-opacity: 0.8; stroke-width: 1.5"/>
    </g>
   </g>
   <g id="LineCollection_3">
    <path d="M 376.272812 92.085082 
L 376.272812 92.085082 
" clip-path="url(#p0cea3dfd7a)" style="fill: none; stroke: #2ca02c; stroke-opacity: 0.8; stroke-width: 2"/>
   </g>
   <g id="line2d_23">
    <defs>
     <path id="ma28b1ef82a" d="M 5 0 
L -5 -0 
" style="stroke: #2ca02c; stroke-opacity: 0.8; stroke-width: 1.5"/>
    </defs>
    <g clip-path="url(#p0cea3dfd7a)">
     <use xlink:href="#ma28b1ef82a" x="376.272812" y="92.085082" style="fill: #2ca02c; fill-opacity: 0.8; stroke: #2ca02c; stroke-opacity: 0.8; stroke-width: 1.5"/>
    </g>
   </g>
   <g id="line2d_24">
    <g clip-path="url(#p0cea3dfd7a)">
     <use xlink:href="#ma28b1ef82a" x="376.272812" y="92.085082" style="fill: #2ca02c; fill-opacity: 0.8; stroke: #2ca02c; stroke-opacity: 0.8; stroke-width: 1.5"/>
    </g>
   </g>
   <g id="line2d_25">
    <path d="M 376.272812 355.615948 
" clip-path="url(#p0cea3dfd7a)" style="fill: none; stroke: #1f77b4; stroke-opacity: 0.8; stroke-width: 2; stroke-linecap: square"/>
    <defs>
     <path id="mb958683d21" d="M 0 3 
C 0.795609 3 1.55874 2.683901 2.12132 2.12132 
C 2.683901 1.55874 3 0.795609 3 0 
C 3 -0.795609 2.683901 -1.55874 2.12132 -2.12132 
C 1.55874 -2.683901 0.795609 -3 0 -3 
C -0.795609 -3 -1.55874 -2.683901 -2.12132 -2.12132 
C -2.683901 -1.55874 -3 -0.795609 -3 0 
C -3 0.795609 -2.683901 1.55874 -2.12132 2.12132 
C -1.55874 2.683901 -0.795609 3 0 3 
z
" style="stroke: #1f77b4; stroke-opacity: 0.8"/>
    </defs>
    <g clip-path="url(#p0cea3dfd7a)">
     <use xlink:href="#mb958683d21" x="376.272812" y="355.615948" style="fill: #1f77b4; fill-opacity: 0.8; stroke: #1f77b4; stroke-opacity: 0.8"/>
    </g>
   </g>
   <g id="line2d_26">
    <path d="M 376.272812 116.042434 
" clip-path="url(#p0cea3dfd7a)" style="fill: none; stroke: #ff7f0e; stroke-opacity: 0.8; stroke-width: 2; stroke-linecap: square"/>
    <defs>
     <path id="m3e0c052826" d="M 0 3 
C 0.795609 3 1.55874 2.683901 2.12132 2.12132 
C 2.683901 1.55874 3 0.795609 3 0 
C 3 -0.795609 2.683901 -1.55874 2.12132 -2.12132 
C 1.55874 -2.683901 0.795609 -3 0 -3 
C -0.795609 -3 -1.55874 -2.683901 -2.12132 -2.12132 
C -2.683901 -1.55874 -3 -0.795609 -3 0 
C -3 0.795609 -2.683901 1.55874 -2.12132 2.12132 
C -1.55874 2.683901 -0.795609 3 0 3 
z
" style="stroke: #ff7f0e; stroke-opacity: 0.8"/>
    </defs>
    <g clip-path="url(#p0cea3dfd7a)">
     <use xlink:href="#m3e0c052826" x="376.272812" y="116.042434" style="fill: #ff7f0e; fill-opacity: 0.8; stroke: #ff7f0e; stroke-opacity: 0.8"/>
    </g>
   </g>
   <g id="line2d_27">
    <path d="M 376.272812 92.085082 
" clip-path="url(#p0cea3dfd7a)" style="fill: none; stroke: #2ca02c; stroke-opacity: 0.8; stroke-width: 2; stroke-linecap: square"/>
    <defs>
     <path id="m68ca2d4026" d="M 0 3 
C 0.795609 3 1.55874 2.683901 2.12132 2.12132 
C 2.683901 1.55874 3 0.795609 3 0 
C 3 -0.795609 2.683901 -1.55874 2.12132 -2.12132 
C 1.55874 -2.683901 0.795609 -3 0 -3 
C -0.795609 -3 -1.55874 -2.683901 -2.12132 -2.12132 
C -2.683901 -1.55874 -3 -0.795609 -3 0 
C -3 0.795609 -2.683901 1.55874 -2.12132 2.12132 
C -1.55874 2.683901 -0.795609 3 0 3 
z
" style="stroke: #2ca02c; stroke-opacity: 0.8"/>
    </defs>
    <g clip-path="url(#p0cea3dfd7a)">
     <use xlink:href="#m68ca2d4026" x="376.272812" y="92.085082" style="fill: #2ca02c; fill-opacity: 0.8; stroke: #2ca02c; stroke-opacity: 0.8"/>
    </g>
   </g>
   <g id="patch_3">
    <path d="M 57.978438 355.615948 
L 57.978438 14.4 
" style="fill: none; stroke: #000000; stroke-width: 0.8; stroke-linejoin: miter; stroke-linecap: square"/>
   </g>
   <g id="patch_4">
    <path d="M 694.567188 355.615948 
L 694.567188 14.4 
" style="fill: none; stroke: #000000; stroke-width: 0.8; stroke-linejoin: miter; stroke-linecap: square"/>
   </g>
   <g id="patch_5">
    <path d="M 57.978437 355.615948 
L 694.567188 355.615948 
" style="fill: none; stroke: #000000; stroke-width: 0.8; stroke-linejoin: miter; stroke-linecap: square"/>
   </g>
   <g id="patch_6">
    <path d="M 57.978437 14.4 
L 694.567188 14.4 
" style="fill: none; stroke: #000000; stroke-width: 0.8; stroke-linejoin: miter; stroke-linecap: square"/>
   </g>
   <g id="legend_1">
    <g id="LineCollection_4">
     <path d="M 609.2125 31.9 
L 609.2125 21.9 
" style="fill: none; stroke: #1f77b4; stroke-opacity: 0.8; stroke-width: 2"/>
    </g>
    <g id="line2d_28">
     <g>
      <use xlink:href="#m52537935c3" x="609.2125" y="31.9" style="fill: #1f77b4; fill-opacity: 0.8; stroke: #1f77b4; stroke-opacity: 0.8; stroke-width: 1.5"/>
     </g>
    </g>
    <g id="line2d_29">
     <g>
      <use xlink:href="#m52537935c3" x="609.2125" y="21.9" style="fill: #1f77b4; fill-opacity: 0.8; stroke: #1f77b4; stroke-opacity: 0.8; stroke-width: 1.5"/>
     </g>
    </g>
    <g id="line2d_30">
     <path d="M 599.2125 26.9 
L 619.2125 26.9 
" style="fill: none; stroke: #1f77b4; stroke-opacity: 0.8; stroke-width: 2; stroke-linecap: square"/>
    </g>
    <g id="line2d_31">
     <g>
      <use xlink:href="#mb958683d21" x="609.2125" y="26.9" style="fill: #1f77b4; fill-opacity: 0.8; stroke: #1f77b4; stroke-opacity: 0.8"/>
     </g>
    </g>
    <g id="text_11">
     <!-- CD40-59mpk -->
     <g transform="translate(627.2125 30.4) scale(0.1 -0.1)">
      <defs>
       <path id="WenQuanYiZenHei-43" d="M 3681 1369 
Q 3388 163 2413 -31 
Q 2238 -63 2056 -63 
Q 1075 -63 588 844 
Q 269 1444 269 2238 
Q 269 3294 819 3913 
Q 1306 4456 2100 4456 
Q 3031 4456 3469 3638 
Q 3613 3375 3681 3050 
L 3163 2956 
Q 2906 3894 2244 3981 
Q 2163 3994 2081 3994 
Q 1281 3994 994 3075 
Q 869 2675 869 2194 
Q 869 1350 1231 838 
Q 1544 394 2056 394 
Q 2888 394 3163 1406 
Q 3175 1444 3181 1481 
L 3681 1369 
z
" transform="scale(0.015625)"/>
       <path id="WenQuanYiZenHei-44" d="M 3975 2206 
Q 3975 1213 3438 581 
Q 2931 0 2113 0 
L 544 0 
L 544 4388 
L 1931 4388 
Q 2731 4388 3200 4013 
Q 3325 3913 3444 3769 
Q 3975 3150 3975 2206 
z
M 3419 2206 
Q 3419 2981 3013 3481 
Q 2700 3875 2150 3925 
L 1900 3931 
L 1094 3931 
L 1094 469 
L 1900 469 
Q 2631 469 2988 875 
Q 3044 944 3100 1025 
Q 3419 1513 3419 2206 
z
" transform="scale(0.015625)"/>
       <path id="WenQuanYiZenHei-6d" d="M 4813 0 
L 4313 0 
L 4313 2069 
Q 4313 2763 3881 2900 
Q 3788 2925 3681 2925 
Q 3313 2925 3050 2563 
Q 2881 2306 2875 1863 
L 2875 1756 
L 2875 0 
L 2375 0 
L 2375 2063 
Q 2375 2750 1931 2894 
Q 1838 2925 1719 2925 
Q 1413 2925 1163 2644 
Q 1144 2625 1131 2606 
Q 938 2356 938 1863 
L 938 0 
L 438 0 
L 438 3250 
L 888 3250 
L 888 2625 
L 900 2625 
Q 1100 3100 1531 3269 
Q 1694 3338 1875 3338 
Q 2394 3338 2663 2888 
Q 2750 2738 2788 2563 
Q 3013 3119 3506 3281 
Q 3669 3338 3838 3338 
Q 4263 3338 4556 3006 
L 4656 2869 
Q 4813 2606 4813 2050 
L 4813 0 
z
" transform="scale(0.015625)"/>
       <path id="WenQuanYiZenHei-70" d="M 3256 1650 
Q 3256 838 2856 350 
Q 2513 -63 1969 -63 
Q 1344 -63 1000 513 
L 1000 -1063 
L 500 -1063 
L 500 3250 
L 956 3250 
L 956 2625 
L 969 2625 
Q 1169 3163 1688 3294 
Q 1825 3338 1969 3338 
Q 2713 3338 3056 2600 
Q 3256 2175 3256 1650 
z
M 2694 1631 
Q 2694 2419 2319 2731 
L 2181 2825 
Q 2038 2894 1856 2894 
Q 1419 2894 1150 2463 
Q 1106 2400 1075 2325 
Q 1000 2169 1000 2100 
L 1000 1275 
Q 1000 875 1319 581 
Q 1563 356 1856 356 
Q 2525 356 2669 1238 
Q 2694 1419 2694 1631 
z
" transform="scale(0.015625)"/>
       <path id="WenQuanYiZenHei-6b" d="M 3150 0 
L 2619 0 
L 1669 1813 
L 975 1006 
L 975 0 
L 475 0 
L 475 4388 
L 975 4388 
L 975 1581 
L 2475 3238 
L 3013 3238 
L 2006 2100 
L 3150 0 
z
" transform="scale(0.015625)"/>
      </defs>
      <use xlink:href="#WenQuanYiZenHei-43"/>
      <use xlink:href="#WenQuanYiZenHei-44" x="61.914062"/>
      <use xlink:href="#WenQuanYiZenHei-34" x="127.832031"/>
      <use xlink:href="#WenQuanYiZenHei-30" x="187.792969"/>
      <use xlink:href="#WenQuanYiZenHei-2d" x="247.753906"/>
      <use xlink:href="#WenQuanYiZenHei-35" x="277.734375"/>
      <use xlink:href="#WenQuanYiZenHei-39" x="337.695312"/>
      <use xlink:href="#WenQuanYiZenHei-6d" x="397.65625"/>
      <use xlink:href="#WenQuanYiZenHei-70" x="479.589844"/>
      <use xlink:href="#WenQuanYiZenHei-6b" x="533.496094"/>
     </g>
    </g>
    <g id="LineCollection_5">
     <path d="M 609.2125 45.560937 
L 609.2125 35.560937 
" style="fill: none; stroke: #ff7f0e; stroke-opacity: 0.8; stroke-width: 2"/>
    </g>
    <g id="line2d_32">
     <g>
      <use xlink:href="#m7a306b336a" x="609.2125" y="45.560937" style="fill: #ff7f0e; fill-opacity: 0.8; stroke: #ff7f0e; stroke-opacity: 0.8; stroke-width: 1.5"/>
     </g>
    </g>
    <g id="line2d_33">
     <g>
      <use xlink:href="#m7a306b336a" x="609.2125" y="35.560937" style="fill: #ff7f0e; fill-opacity: 0.8; stroke: #ff7f0e; stroke-opacity: 0.8; stroke-width: 1.5"/>
     </g>
    </g>
    <g id="line2d_34">
     <path d="M 599.2125 40.560937 
L 619.2125 40.560937 
" style="fill: none; stroke: #ff7f0e; stroke-opacity: 0.8; stroke-width: 2; stroke-linecap: square"/>
    </g>
    <g id="line2d_35">
     <g>
      <use xlink:href="#m3e0c052826" x="609.2125" y="40.560937" style="fill: #ff7f0e; fill-opacity: 0.8; stroke: #ff7f0e; stroke-opacity: 0.8"/>
     </g>
    </g>
    <g id="text_12">
     <!-- WT-59mpk -->
     <g transform="translate(627.2125 44.060937) scale(0.1 -0.1)">
      <defs>
       <path id="WenQuanYiZenHei-57" d="M 5194 4388 
L 4144 0 
L 3588 0 
L 2638 3406 
L 1744 0 
L 1181 0 
L 69 4388 
L 631 4388 
L 1513 831 
L 1525 831 
L 2450 4388 
L 2894 4388 
L 3894 831 
L 3906 831 
L 4719 4388 
L 5194 4388 
z
" transform="scale(0.015625)"/>
       <path id="WenQuanYiZenHei-54" d="M 3119 3913 
L 1869 3913 
L 1869 0 
L 1319 0 
L 1319 3913 
L 69 3913 
L 69 4388 
L 3119 4388 
L 3119 3913 
z
" transform="scale(0.015625)"/>
      </defs>
      <use xlink:href="#WenQuanYiZenHei-57"/>
      <use xlink:href="#WenQuanYiZenHei-54" x="81.933594"/>
      <use xlink:href="#WenQuanYiZenHei-2d" x="131.933594"/>
      <use xlink:href="#WenQuanYiZenHei-35" x="161.914062"/>
      <use xlink:href="#WenQuanYiZenHei-39" x="221.875"/>
      <use xlink:href="#WenQuanYiZenHei-6d" x="281.835938"/>
      <use xlink:href="#WenQuanYiZenHei-70" x="363.769531"/>
      <use xlink:href="#WenQuanYiZenHei-6b" x="417.675781"/>
     </g>
    </g>
    <g id="LineCollection_6">
     <path d="M 609.2125 60.434375 
L 609.2125 50.434375 
" style="fill: none; stroke: #2ca02c; stroke-opacity: 0.8; stroke-width: 2"/>
    </g>
    <g id="line2d_36">
     <g>
      <use xlink:href="#ma28b1ef82a" x="609.2125" y="60.434375" style="fill: #2ca02c; fill-opacity: 0.8; stroke: #2ca02c; stroke-opacity: 0.8; stroke-width: 1.5"/>
     </g>
    </g>
    <g id="line2d_37">
     <g>
      <use xlink:href="#ma28b1ef82a" x="609.2125" y="50.434375" style="fill: #2ca02c; fill-opacity: 0.8; stroke: #2ca02c; stroke-opacity: 0.8; stroke-width: 1.5"/>
     </g>
    </g>
    <g id="line2d_38">
     <path d="M 599.2125 55.434375 
L 619.2125 55.434375 
" style="fill: none; stroke: #2ca02c; stroke-opacity: 0.8; stroke-width: 2; stroke-linecap: square"/>
    </g>
    <g id="line2d_39">
     <g>
      <use xlink:href="#m68ca2d4026" x="609.2125" y="55.434375" style="fill: #2ca02c; fill-opacity: 0.8; stroke: #2ca02c; stroke-opacity: 0.8"/>
     </g>
    </g>
    <g id="text_13">
     <!-- 对照组 -->
     <g transform="translate(627.2125 58.934375) scale(0.1 -0.1)">
      <defs>
       <path id="WenQuanYiZenHei-5bf9" d="M 3750 1375 
Q 3538 2000 3163 2538 
L 3575 2831 
Q 3994 2231 4225 1538 
L 3750 1375 
z
M 4688 150 
L 4688 3288 
L 3838 3288 
Q 3456 3288 3075 3269 
Q 3100 3475 3075 3681 
Q 3456 3663 3838 3663 
L 4688 3663 
L 4688 4325 
Q 4688 4794 4663 5256 
Q 4913 5231 5169 5256 
Q 5144 4794 5144 4325 
L 5144 3663 
L 5375 3663 
Q 5756 3663 6138 3681 
Q 6113 3475 6138 3269 
Q 5756 3288 5375 3288 
L 5144 3288 
L 5144 -25 
Q 5144 -469 4894 -650 
Q 4625 -838 3994 -831 
Q 4063 -513 3844 -269 
Q 4044 -294 4294 -297 
Q 4544 -300 4612 -240 
Q 4681 -181 4688 150 
z
M 1256 4025 
Q 875 4025 494 4006 
Q 519 4213 494 4419 
Q 875 4400 1256 4400 
L 2875 4400 
Q 2775 3063 2175 1869 
L 3013 431 
L 2569 181 
L 1894 1350 
Q 1344 444 556 -250 
Q 325 -94 56 -31 
Q 1013 744 1625 1813 
L 488 3688 
L 913 3956 
L 1900 2344 
Q 2263 3150 2400 4025 
L 1256 4025 
z
" transform="scale(0.015625)"/>
       <path id="WenQuanYiZenHei-7167" d="M 3144 1194 
Q 3219 1975 3144 2763 
L 5650 2763 
Q 5569 1975 5638 1194 
L 3144 1194 
z
M 5231 3744 
L 5231 4788 
L 4206 4788 
Q 4131 4081 3740 3503 
Q 3350 2925 2800 2531 
Q 2700 2725 2506 2831 
Q 3025 3175 3315 3640 
Q 3606 4106 3769 4788 
L 3425 4788 
Q 3144 4788 2856 4775 
Q 2875 4931 2856 5081 
Q 3144 5069 3425 5069 
L 5644 5069 
L 5644 3681 
Q 5644 3494 5475 3344 
Q 5206 3131 4575 3138 
Q 4638 3425 4438 3644 
Q 4625 3619 4900 3616 
Q 5175 3613 5203 3641 
Q 5231 3669 5231 3744 
z
M 1000 938 
L 588 938 
L 588 5088 
L 2425 5088 
L 2425 938 
L 2006 938 
L 2006 1313 
L 1000 1313 
L 1000 938 
z
M 3563 2481 
L 3563 1469 
L 5225 1469 
L 5231 2481 
L 3563 2481 
z
M 2006 3319 
L 2006 4806 
L 1000 4806 
L 1000 3319 
L 2006 3319 
z
M 2006 3063 
L 1000 3063 
L 1000 1569 
L 2006 1569 
L 2006 3063 
z
M 5663 -1056 
Q 5288 -244 4756 388 
L 5088 769 
Q 5694 38 6069 -800 
L 5663 -1056 
z
M 4500 -600 
L 4106 -888 
L 3488 269 
L 3875 556 
L 4500 -600 
z
M 3006 -713 
L 2594 -956 
L 2075 256 
L 2488 494 
L 3006 -713 
z
M 475 -794 
Q 775 -169 1006 525 
L 1431 331 
Q 1194 -400 875 -1063 
L 475 -794 
z
" transform="scale(0.015625)"/>
       <path id="WenQuanYiZenHei-7ec4" d="M 6175 -56 
Q 6156 -238 6175 -419 
Q 5838 -400 5506 -400 
L 2750 -400 
Q 2413 -400 2075 -419 
Q 2100 -238 2075 -56 
L 2925 -69 
L 2919 4794 
L 5400 4794 
L 5400 -69 
L 6175 -56 
z
M 4963 3200 
L 4963 4463 
L 3363 4463 
L 3363 3200 
L 4963 3200 
z
M 4963 1594 
L 4963 2869 
L 3363 2869 
L 3363 1594 
L 4963 1594 
z
M 4963 -69 
L 4963 1263 
L 3369 1263 
L 3369 -69 
L 4963 -69 
z
M 269 -256 
Q 256 69 100 281 
Q 488 300 963 378 
Q 1438 456 2531 788 
L 2538 475 
Q 1494 181 1059 31 
Q 625 -119 269 -256 
z
M 1356 5131 
Q 1594 4994 1863 4900 
Q 1675 4544 1269 3944 
L 738 3169 
L 1400 3231 
L 1600 3281 
Q 1794 3588 1931 3919 
Q 2163 3775 2431 3675 
Q 2344 3506 2212 3312 
Q 2081 3119 1584 2456 
Q 1088 1794 913 1581 
L 2031 1713 
L 2425 1800 
L 2413 1425 
L 2075 1406 
L 219 1144 
L 169 1488 
Q 306 1494 394 1594 
Q 825 2094 1363 2913 
L 106 2738 
L 56 3081 
Q 181 3088 256 3181 
Q 813 3975 1256 4881 
Q 1313 5006 1356 5131 
z
" transform="scale(0.015625)"/>
      </defs>
      <use xlink:href="#WenQuanYiZenHei-5bf9"/>
      <use xlink:href="#WenQuanYiZenHei-7167" x="100"/>
      <use xlink:href="#WenQuanYiZenHei-7ec4" x="200"/>
     </g>
    </g>
   </g>
  </g>
 </g>
 <defs>
  <clipPath id="p0cea3dfd7a">
   <rect x="57.978438" y="14.4" width="636.58875" height="341.215948"/>
  </clipPath>
 </defs>
</svg>
